<svg width="353" height="118" viewBox="0 0 353 118" fill="none" xmlns="http://www.w3.org/2000/svg">
<path d="M0 17C0 14.7909 1.79086 13 4 13H32V77H4C1.79086 77 0 75.2091 0 73V17Z" fill="#B34439"/>
<path d="M8.7777 38.2045C9.29664 38.2083 9.808 38.303 10.3118 38.4886C10.8156 38.6742 11.2701 38.9773 11.6754 39.3977C12.0845 39.8182 12.4103 40.3864 12.6527 41.1023C12.8989 41.8144 13.0239 42.7008 13.0277 43.7614C13.0277 44.7803 12.9254 45.6875 12.7209 46.483C12.5163 47.2746 12.2228 47.9432 11.8402 48.4886C11.4614 49.0341 11.0012 49.4489 10.4595 49.733C9.91785 50.017 9.308 50.1591 8.62997 50.1591C7.93679 50.1591 7.32126 50.0227 6.78338 49.75C6.2455 49.4773 5.808 49.1004 5.47088 48.6193C5.13376 48.1345 4.92353 47.5777 4.8402 46.9489H6.57315C6.68679 47.4489 6.91785 47.8542 7.26634 48.1648C7.61861 48.4716 8.07315 48.625 8.62997 48.625C9.48224 48.625 10.147 48.2538 10.6243 47.5114C11.1016 46.7652 11.3421 45.7235 11.3459 44.3864H11.255C11.058 44.7121 10.8118 44.9924 10.5163 45.2273C10.2247 45.4621 9.89702 45.6439 9.53338 45.7727C9.16974 45.9015 8.78149 45.9659 8.36861 45.9659C7.69815 45.9659 7.0883 45.8011 6.53906 45.4716C5.98982 45.142 5.55232 44.6894 5.22656 44.1136C4.9008 43.5379 4.73793 42.8807 4.73793 42.142C4.73793 41.4072 4.90459 40.7405 5.23793 40.142C5.57505 39.5436 6.04474 39.0701 6.64702 38.7216C7.25308 38.3693 7.9633 38.197 8.7777 38.2045ZM8.78338 39.6818C8.3402 39.6818 7.94058 39.7917 7.58452 40.0114C7.23224 40.2273 6.95384 40.5208 6.74929 40.892C6.54474 41.2595 6.44247 41.6686 6.44247 42.1193C6.44247 42.5701 6.54096 42.9792 6.73793 43.3466C6.93868 43.7102 7.21141 44 7.55611 44.2159C7.90459 44.428 8.30232 44.5341 8.74929 44.5341C9.08262 44.5341 9.39323 44.4697 9.68111 44.3409C9.96899 44.2121 10.2209 44.0341 10.4368 43.8068C10.6527 43.5758 10.8213 43.3144 10.9425 43.0227C11.0637 42.7311 11.1243 42.4242 11.1243 42.1023C11.1243 41.6742 11.022 41.2765 10.8175 40.9091C10.6167 40.5417 10.3402 40.2462 9.98793 40.0227C9.63565 39.7955 9.23414 39.6818 8.78338 39.6818ZM21.1541 47.8182V47.2045C21.1541 46.7652 21.245 46.3636 21.4268 46C21.6125 45.6326 21.8814 45.339 22.2337 45.1193C22.5897 44.8958 23.0196 44.7841 23.5234 44.7841C24.0386 44.7841 24.4704 44.8939 24.8189 45.1136C25.1674 45.3333 25.4306 45.6269 25.6087 45.9943C25.7905 46.3617 25.8814 46.7652 25.8814 47.2045V47.8182C25.8814 48.2576 25.7905 48.661 25.6087 49.0284C25.4268 49.392 25.1598 49.6856 24.8075 49.9091C24.459 50.1288 24.031 50.2386 23.5234 50.2386C23.0121 50.2386 22.5803 50.1288 22.228 49.9091C21.8757 49.6856 21.6087 49.392 21.4268 49.0284C21.245 48.661 21.1541 48.2576 21.1541 47.8182ZM22.478 47.2045V47.8182C22.478 48.1439 22.5556 48.4394 22.7109 48.7045C22.8662 48.9697 23.1371 49.1023 23.5234 49.1023C23.906 49.1023 24.1731 48.9697 24.3246 48.7045C24.4761 48.4394 24.5518 48.1439 24.5518 47.8182V47.2045C24.5518 46.8788 24.478 46.5833 24.3303 46.3182C24.1863 46.053 23.9174 45.9205 23.5234 45.9205C23.1446 45.9205 22.8757 46.053 22.7166 46.3182C22.5575 46.5833 22.478 46.8788 22.478 47.2045ZM15.3018 41.1591V40.5455C15.3018 40.1061 15.3928 39.7027 15.5746 39.3352C15.7602 38.9678 16.0291 38.6742 16.3814 38.4545C16.7375 38.2348 17.1674 38.125 17.6712 38.125C18.1863 38.125 18.6181 38.2348 18.9666 38.4545C19.3151 38.6742 19.5784 38.9678 19.7564 39.3352C19.9344 39.7027 20.0234 40.1061 20.0234 40.5455V41.1591C20.0234 41.5985 19.9325 42.0019 19.7507 42.3693C19.5727 42.733 19.3075 43.0265 18.9553 43.25C18.6068 43.4697 18.1787 43.5795 17.6712 43.5795C17.156 43.5795 16.7223 43.4697 16.37 43.25C16.0215 43.0265 15.7564 42.733 15.5746 42.3693C15.3928 42.0019 15.3018 41.5985 15.3018 41.1591ZM16.6314 40.5455V41.1591C16.6314 41.4848 16.7071 41.7803 16.8587 42.0455C17.014 42.3106 17.2848 42.4432 17.6712 42.4432C18.05 42.4432 18.3151 42.3106 18.4666 42.0455C18.6219 41.7803 18.6996 41.4848 18.6996 41.1591V40.5455C18.6996 40.2197 18.6257 39.9242 18.478 39.6591C18.3303 39.3939 18.0613 39.2614 17.6712 39.2614C17.2924 39.2614 17.0234 39.3939 16.8643 39.6591C16.709 39.9242 16.6314 40.2197 16.6314 40.5455ZM15.8416 50L23.8416 38.3636H25.1996L17.1996 50H15.8416Z" fill="white"/>
<rect width="84" height="64" transform="translate(32 13)" fill="#F56A58"/>
<path d="M57.4787 50V48.7273L61.4162 44.6477C61.8366 44.2045 62.1832 43.8163 62.456 43.483C62.7325 43.1458 62.9389 42.8258 63.0753 42.5227C63.2116 42.2197 63.2798 41.8977 63.2798 41.5568C63.2798 41.1705 63.1889 40.8371 63.0071 40.5568C62.8253 40.2727 62.5772 40.0549 62.2628 39.9034C61.9484 39.7481 61.5942 39.6705 61.2003 39.6705C60.7836 39.6705 60.42 39.7557 60.1094 39.9261C59.7988 40.0966 59.5601 40.3371 59.3935 40.6477C59.2268 40.9583 59.1435 41.322 59.1435 41.7386H57.4673C57.4673 41.0303 57.6302 40.411 57.956 39.8807C58.2817 39.3504 58.7287 38.9394 59.2969 38.6477C59.8651 38.3523 60.5109 38.2045 61.2344 38.2045C61.9654 38.2045 62.6094 38.3504 63.1662 38.642C63.7268 38.9299 64.1643 39.3239 64.4787 39.8239C64.7931 40.3201 64.9503 40.8807 64.9503 41.5057C64.9503 41.9375 64.8688 42.3598 64.706 42.7727C64.5469 43.1856 64.2685 43.6458 63.8707 44.1534C63.473 44.6572 62.92 45.2689 62.2116 45.9886L59.8991 48.4091V48.4943H65.1378V50H57.4787ZM66.7969 47.7273V46.3068L71.8253 38.3636H72.9446V40.4545H72.2344L68.6378 46.1477V46.2386H75.5298V47.7273H66.7969ZM72.3139 50V47.2955L72.3253 46.6477V38.3636H73.9901V50H72.3139ZM83.5838 47.8182V47.2045C83.5838 46.7652 83.6747 46.3636 83.8565 46C84.0421 45.6326 84.3111 45.339 84.6634 45.1193C85.0194 44.8958 85.4493 44.7841 85.9531 44.7841C86.4683 44.7841 86.9001 44.8939 87.2486 45.1136C87.5971 45.3333 87.8603 45.6269 88.0384 45.9943C88.2202 46.3617 88.3111 46.7652 88.3111 47.2045V47.8182C88.3111 48.2576 88.2202 48.661 88.0384 49.0284C87.8565 49.392 87.5895 49.6856 87.2372 49.9091C86.8887 50.1288 86.4607 50.2386 85.9531 50.2386C85.4418 50.2386 85.0099 50.1288 84.6577 49.9091C84.3054 49.6856 84.0384 49.392 83.8565 49.0284C83.6747 48.661 83.5838 48.2576 83.5838 47.8182ZM84.9077 47.2045V47.8182C84.9077 48.1439 84.9853 48.4394 85.1406 48.7045C85.2959 48.9697 85.5668 49.1023 85.9531 49.1023C86.3357 49.1023 86.6027 48.9697 86.7543 48.7045C86.9058 48.4394 86.9815 48.1439 86.9815 47.8182V47.2045C86.9815 46.8788 86.9077 46.5833 86.7599 46.3182C86.616 46.053 86.3471 45.9205 85.9531 45.9205C85.5743 45.9205 85.3054 46.053 85.1463 46.3182C84.9872 46.5833 84.9077 46.8788 84.9077 47.2045ZM77.7315 41.1591V40.5455C77.7315 40.1061 77.8224 39.7027 78.0043 39.3352C78.1899 38.9678 78.4588 38.6742 78.8111 38.4545C79.1671 38.2348 79.5971 38.125 80.1009 38.125C80.616 38.125 81.0478 38.2348 81.3963 38.4545C81.7448 38.6742 82.008 38.9678 82.1861 39.3352C82.3641 39.7027 82.4531 40.1061 82.4531 40.5455V41.1591C82.4531 41.5985 82.3622 42.0019 82.1804 42.3693C82.0024 42.733 81.7372 43.0265 81.3849 43.25C81.0365 43.4697 80.6084 43.5795 80.1009 43.5795C79.5857 43.5795 79.152 43.4697 78.7997 43.25C78.4512 43.0265 78.1861 42.733 78.0043 42.3693C77.8224 42.0019 77.7315 41.5985 77.7315 41.1591ZM79.0611 40.5455V41.1591C79.0611 41.4848 79.1368 41.7803 79.2884 42.0455C79.4437 42.3106 79.7145 42.4432 80.1009 42.4432C80.4796 42.4432 80.7448 42.3106 80.8963 42.0455C81.0516 41.7803 81.1293 41.4848 81.1293 41.1591V40.5455C81.1293 40.2197 81.0554 39.9242 80.9077 39.6591C80.7599 39.3939 80.491 39.2614 80.1009 39.2614C79.7221 39.2614 79.4531 39.3939 79.294 39.6591C79.1387 39.9242 79.0611 40.2197 79.0611 40.5455ZM78.2713 50L86.2713 38.3636H87.6293L79.6293 50H78.2713Z" fill="white"/>
<rect x="116" width="3" height="90" rx="1.5" fill="#B5B4B0"/>
<rect width="167" height="64" transform="translate(119 13)" fill="#D5D4D0"/>
<path d="M194.461 47.7273V46.3068L199.489 38.3636H200.609V40.4545H199.898L196.302 46.1477V46.2386H203.194V47.7273H194.461ZM199.978 50V47.2955L199.989 46.6477V38.3636H201.654V50H199.978ZM209.106 50.1591C208.291 50.1591 207.572 50.0189 206.947 49.7386C206.326 49.4583 205.839 49.072 205.487 48.5795C205.134 48.0871 204.96 47.5265 204.964 46.8977C204.96 46.4053 205.06 45.9527 205.265 45.5398C205.473 45.1231 205.755 44.7765 206.112 44.5C206.468 44.2197 206.865 44.0417 207.305 43.9659V43.8977C206.725 43.7576 206.261 43.447 205.913 42.9659C205.564 42.4848 205.392 41.9318 205.396 41.3068C205.392 40.7121 205.549 40.1818 205.867 39.7159C206.189 39.2462 206.63 38.8769 207.191 38.608C207.752 38.339 208.39 38.2045 209.106 38.2045C209.814 38.2045 210.447 38.3409 211.004 38.6136C211.564 38.8826 212.005 39.2519 212.327 39.7216C212.649 40.1875 212.812 40.7159 212.816 41.3068C212.812 41.9318 212.634 42.4848 212.282 42.9659C211.93 43.447 211.471 43.7576 210.907 43.8977V43.9659C211.343 44.0417 211.735 44.2197 212.083 44.5C212.435 44.7765 212.716 45.1231 212.924 45.5398C213.136 45.9527 213.244 46.4053 213.248 46.8977C213.244 47.5265 213.066 48.0871 212.714 48.5795C212.362 49.072 211.873 49.4583 211.248 49.7386C210.627 50.0189 209.913 50.1591 209.106 50.1591ZM209.106 48.7216C209.587 48.7216 210.004 48.642 210.356 48.483C210.708 48.3201 210.981 48.0947 211.174 47.8068C211.367 47.5152 211.466 47.1742 211.469 46.7841C211.466 46.3788 211.36 46.0208 211.151 45.7102C210.947 45.3996 210.668 45.1553 210.316 44.9773C209.964 44.7992 209.56 44.7102 209.106 44.7102C208.647 44.7102 208.24 44.7992 207.884 44.9773C207.528 45.1553 207.248 45.3996 207.043 45.7102C206.839 46.0208 206.738 46.3788 206.742 46.7841C206.738 47.1742 206.831 47.5152 207.021 47.8068C207.214 48.0947 207.488 48.3201 207.844 48.483C208.201 48.642 208.621 48.7216 209.106 48.7216ZM209.106 43.3068C209.492 43.3068 209.835 43.2292 210.134 43.0739C210.433 42.9186 210.668 42.7027 210.839 42.4261C211.013 42.1496 211.102 41.8258 211.106 41.4545C211.102 41.0909 211.015 40.7727 210.844 40.5C210.678 40.2273 210.445 40.017 210.146 39.8693C209.846 39.7178 209.5 39.642 209.106 39.642C208.704 39.642 208.352 39.7178 208.049 39.8693C207.75 40.017 207.517 40.2273 207.35 40.5C207.183 40.7727 207.102 41.0909 207.106 41.4545C207.102 41.8258 207.185 42.1496 207.356 42.4261C207.526 42.7027 207.761 42.9186 208.06 43.0739C208.363 43.2292 208.712 43.3068 209.106 43.3068ZM221.357 47.8182V47.2045C221.357 46.7652 221.448 46.3636 221.63 46C221.816 45.6326 222.085 45.339 222.437 45.1193C222.793 44.8958 223.223 44.7841 223.727 44.7841C224.242 44.7841 224.674 44.8939 225.022 45.1136C225.371 45.3333 225.634 45.6269 225.812 45.9943C225.994 46.3617 226.085 46.7652 226.085 47.2045V47.8182C226.085 48.2576 225.994 48.661 225.812 49.0284C225.63 49.392 225.363 49.6856 225.011 49.9091C224.662 50.1288 224.234 50.2386 223.727 50.2386C223.215 50.2386 222.783 50.1288 222.431 49.9091C222.079 49.6856 221.812 49.392 221.63 49.0284C221.448 48.661 221.357 48.2576 221.357 47.8182ZM222.681 47.2045V47.8182C222.681 48.1439 222.759 48.4394 222.914 48.7045C223.069 48.9697 223.34 49.1023 223.727 49.1023C224.109 49.1023 224.376 48.9697 224.528 48.7045C224.679 48.4394 224.755 48.1439 224.755 47.8182V47.2045C224.755 46.8788 224.681 46.5833 224.533 46.3182C224.389 46.053 224.121 45.9205 223.727 45.9205C223.348 45.9205 223.079 46.053 222.92 46.3182C222.761 46.5833 222.681 46.8788 222.681 47.2045ZM215.505 41.1591V40.5455C215.505 40.1061 215.596 39.7027 215.778 39.3352C215.963 38.9678 216.232 38.6742 216.585 38.4545C216.941 38.2348 217.371 38.125 217.874 38.125C218.389 38.125 218.821 38.2348 219.17 38.4545C219.518 38.6742 219.781 38.9678 219.96 39.3352C220.138 39.7027 220.227 40.1061 220.227 40.5455V41.1591C220.227 41.5985 220.136 42.0019 219.954 42.3693C219.776 42.733 219.511 43.0265 219.158 43.25C218.81 43.4697 218.382 43.5795 217.874 43.5795C217.359 43.5795 216.925 43.4697 216.573 43.25C216.225 43.0265 215.96 42.733 215.778 42.3693C215.596 42.0019 215.505 41.5985 215.505 41.1591ZM216.835 40.5455V41.1591C216.835 41.4848 216.91 41.7803 217.062 42.0455C217.217 42.3106 217.488 42.4432 217.874 42.4432C218.253 42.4432 218.518 42.3106 218.67 42.0455C218.825 41.7803 218.903 41.4848 218.903 41.1591V40.5455C218.903 40.2197 218.829 39.9242 218.681 39.6591C218.533 39.3939 218.264 39.2614 217.874 39.2614C217.496 39.2614 217.227 39.3939 217.067 39.6591C216.912 39.9242 216.835 40.2197 216.835 40.5455ZM216.045 50L224.045 38.3636H225.403L217.403 50H216.045Z" fill="#555450"/>
<rect width="46" height="64" transform="translate(286 13)" fill="#20BE8E"/>
<path d="M298.972 38.3636V50H297.21V40.125H297.142L294.358 41.9432V40.2614L297.261 38.3636H298.972ZM306.17 50.1591C305.39 50.1591 304.693 50.0246 304.08 49.7557C303.47 49.4867 302.987 49.1136 302.631 48.6364C302.278 48.1553 302.089 47.5985 302.062 46.9659H303.847C303.869 47.3106 303.985 47.6098 304.193 47.8636C304.405 48.1136 304.682 48.3068 305.023 48.4432C305.364 48.5795 305.742 48.6477 306.159 48.6477C306.617 48.6477 307.023 48.5682 307.375 48.4091C307.731 48.25 308.009 48.0284 308.21 47.7443C308.411 47.4564 308.511 47.125 308.511 46.75C308.511 46.3598 308.411 46.017 308.21 45.7216C308.013 45.4223 307.723 45.1875 307.341 45.017C306.962 44.8466 306.504 44.7614 305.966 44.7614H304.983V43.3295H305.966C306.398 43.3295 306.777 43.2519 307.102 43.0966C307.432 42.9413 307.689 42.7254 307.875 42.4489C308.061 42.1686 308.153 41.8409 308.153 41.4659C308.153 41.1061 308.072 40.7936 307.909 40.5284C307.75 40.2595 307.523 40.0492 307.227 39.8977C306.936 39.7462 306.591 39.6705 306.193 39.6705C305.814 39.6705 305.46 39.7405 305.131 39.8807C304.805 40.017 304.54 40.214 304.335 40.4716C304.131 40.7254 304.021 41.0303 304.006 41.3864H302.307C302.326 40.7576 302.511 40.2045 302.864 39.7273C303.22 39.25 303.689 38.8769 304.273 38.608C304.856 38.339 305.504 38.2045 306.216 38.2045C306.962 38.2045 307.606 38.3504 308.148 38.642C308.693 38.9299 309.114 39.3144 309.409 39.7955C309.708 40.2765 309.856 40.803 309.852 41.375C309.856 42.0265 309.674 42.5795 309.307 43.0341C308.943 43.4886 308.458 43.7936 307.852 43.9489V44.0398C308.625 44.1572 309.223 44.464 309.648 44.9602C310.076 45.4564 310.288 46.072 310.284 46.8068C310.288 47.447 310.11 48.0208 309.75 48.5284C309.394 49.036 308.907 49.4356 308.29 49.7273C307.672 50.0152 306.966 50.1591 306.17 50.1591ZM318.506 47.8182V47.2045C318.506 46.7652 318.597 46.3636 318.778 46C318.964 45.6326 319.233 45.339 319.585 45.1193C319.941 44.8958 320.371 44.7841 320.875 44.7841C321.39 44.7841 321.822 44.8939 322.17 45.1136C322.519 45.3333 322.782 45.6269 322.96 45.9943C323.142 46.3617 323.233 46.7652 323.233 47.2045V47.8182C323.233 48.2576 323.142 48.661 322.96 49.0284C322.778 49.392 322.511 49.6856 322.159 49.9091C321.811 50.1288 321.383 50.2386 320.875 50.2386C320.364 50.2386 319.932 50.1288 319.58 49.9091C319.227 49.6856 318.96 49.392 318.778 49.0284C318.597 48.661 318.506 48.2576 318.506 47.8182ZM319.83 47.2045V47.8182C319.83 48.1439 319.907 48.4394 320.062 48.7045C320.218 48.9697 320.489 49.1023 320.875 49.1023C321.258 49.1023 321.525 48.9697 321.676 48.7045C321.828 48.4394 321.903 48.1439 321.903 47.8182V47.2045C321.903 46.8788 321.83 46.5833 321.682 46.3182C321.538 46.053 321.269 45.9205 320.875 45.9205C320.496 45.9205 320.227 46.053 320.068 46.3182C319.909 46.5833 319.83 46.8788 319.83 47.2045ZM312.653 41.1591V40.5455C312.653 40.1061 312.744 39.7027 312.926 39.3352C313.112 38.9678 313.381 38.6742 313.733 38.4545C314.089 38.2348 314.519 38.125 315.023 38.125C315.538 38.125 315.97 38.2348 316.318 38.4545C316.667 38.6742 316.93 38.9678 317.108 39.3352C317.286 39.7027 317.375 40.1061 317.375 40.5455V41.1591C317.375 41.5985 317.284 42.0019 317.102 42.3693C316.924 42.733 316.659 43.0265 316.307 43.25C315.958 43.4697 315.53 43.5795 315.023 43.5795C314.508 43.5795 314.074 43.4697 313.722 43.25C313.373 43.0265 313.108 42.733 312.926 42.3693C312.744 42.0019 312.653 41.5985 312.653 41.1591ZM313.983 40.5455V41.1591C313.983 41.4848 314.059 41.7803 314.21 42.0455C314.366 42.3106 314.636 42.4432 315.023 42.4432C315.402 42.4432 315.667 42.3106 315.818 42.0455C315.973 41.7803 316.051 41.4848 316.051 41.1591V40.5455C316.051 40.2197 315.977 39.9242 315.83 39.6591C315.682 39.3939 315.413 39.2614 315.023 39.2614C314.644 39.2614 314.375 39.3939 314.216 39.6591C314.061 39.9242 313.983 40.2197 313.983 40.5455ZM313.193 50L321.193 38.3636H322.551L314.551 50H313.193Z" fill="white"/>
<path d="M332 13H349C351.209 13 353 14.7909 353 17V73C353 75.2091 351.209 77 349 77H332V13Z" fill="#058663"/>
<path d="M342.596 50.1591C342.077 50.1515 341.566 50.0568 341.062 49.875C340.562 49.6932 340.107 49.3902 339.698 48.9659C339.289 48.5417 338.961 47.9716 338.715 47.2557C338.473 46.5398 338.352 45.6458 338.352 44.5739C338.352 43.5587 338.452 42.6572 338.653 41.8693C338.857 41.0814 339.151 40.4167 339.533 39.875C339.916 39.3295 340.378 38.9148 340.92 38.6307C341.461 38.3466 342.069 38.2045 342.744 38.2045C343.437 38.2045 344.052 38.3409 344.59 38.6136C345.128 38.8864 345.564 39.2633 345.897 39.7443C346.234 40.2254 346.448 40.7727 346.539 41.3864H344.806C344.689 40.9015 344.456 40.5057 344.107 40.1989C343.759 39.892 343.304 39.7386 342.744 39.7386C341.891 39.7386 341.227 40.1098 340.749 40.8523C340.276 41.5947 340.037 42.6269 340.033 43.9489H340.119C340.319 43.6193 340.566 43.339 340.857 43.108C341.153 42.8731 341.482 42.6932 341.846 42.5682C342.213 42.4394 342.6 42.375 343.005 42.375C343.679 42.375 344.289 42.5398 344.835 42.8693C345.384 43.1951 345.821 43.6458 346.147 44.2216C346.473 44.7973 346.636 45.4564 346.636 46.1989C346.636 46.9413 346.467 47.6136 346.13 48.2159C345.797 48.8182 345.327 49.2955 344.721 49.6477C344.115 49.9962 343.406 50.1667 342.596 50.1591ZM342.59 48.6818C343.037 48.6818 343.437 48.572 343.789 48.3523C344.141 48.1326 344.42 47.8371 344.624 47.4659C344.829 47.0947 344.931 46.6799 344.931 46.2216C344.931 45.7746 344.831 45.3674 344.63 45C344.433 44.6326 344.16 44.3409 343.812 44.125C343.467 43.9091 343.073 43.8011 342.63 43.8011C342.293 43.8011 341.98 43.8655 341.692 43.9943C341.408 44.1231 341.158 44.3011 340.942 44.5284C340.727 44.7557 340.556 45.017 340.431 45.3125C340.31 45.6042 340.249 45.9129 340.249 46.2386C340.249 46.6742 340.35 47.0777 340.55 47.4489C340.755 47.8201 341.033 48.1193 341.386 48.3466C341.742 48.5701 342.143 48.6818 342.59 48.6818Z" fill="white"/>
<path d="M18.9813 103.545V113H17.6702L12.8644 106.066H12.7767V113H11.3502V103.545H12.6705L17.4809 110.489H17.5686V103.545H18.9813ZM23.9382 113.143C23.2734 113.143 22.6933 112.991 22.1978 112.686C21.7023 112.381 21.3176 111.955 21.0437 111.407C20.7698 110.859 20.6328 110.219 20.6328 109.487C20.6328 108.751 20.7698 108.108 21.0437 107.557C21.3176 107.006 21.7023 106.578 22.1978 106.274C22.6933 105.969 23.2734 105.817 23.9382 105.817C24.603 105.817 25.1831 105.969 25.6786 106.274C26.1741 106.578 26.5588 107.006 26.8327 107.557C27.1067 108.108 27.2436 108.751 27.2436 109.487C27.2436 110.219 27.1067 110.859 26.8327 111.407C26.5588 111.955 26.1741 112.381 25.6786 112.686C25.1831 112.991 24.603 113.143 23.9382 113.143ZM23.9428 111.984C24.3737 111.984 24.7307 111.871 25.0138 111.643C25.297 111.415 25.5063 111.112 25.6417 110.733C25.7802 110.355 25.8494 109.938 25.8494 109.482C25.8494 109.03 25.7802 108.614 25.6417 108.236C25.5063 107.854 25.297 107.548 25.0138 107.317C24.7307 107.086 24.3737 106.971 23.9428 106.971C23.5089 106.971 23.1488 107.086 22.8626 107.317C22.5794 107.548 22.3686 107.854 22.2301 108.236C22.0947 108.614 22.027 109.03 22.027 109.482C22.027 109.938 22.0947 110.355 22.2301 110.733C22.3686 111.112 22.5794 111.415 22.8626 111.643C23.1488 111.871 23.5089 111.984 23.9428 111.984ZM32.0944 105.909V107.017H28.2211V105.909H32.0944ZM29.2599 104.21H30.6402V110.918C30.6402 111.186 30.6802 111.387 30.7602 111.523C30.8402 111.655 30.9433 111.746 31.0695 111.795C31.1988 111.841 31.3388 111.864 31.4896 111.864C31.6004 111.864 31.6974 111.857 31.7805 111.841C31.8635 111.826 31.9282 111.814 31.9743 111.804L32.2236 112.945C32.1436 112.975 32.0297 113.006 31.882 113.037C31.7343 113.071 31.5496 113.089 31.328 113.092C30.9649 113.098 30.6263 113.034 30.3124 112.898C29.9985 112.763 29.7446 112.554 29.5507 112.271C29.3568 111.987 29.2599 111.632 29.2599 111.204V104.21ZM39.1253 113.157C38.6759 113.157 38.2697 113.074 37.9065 112.908C37.5434 112.738 37.2556 112.494 37.0432 112.174C36.834 111.854 36.7293 111.461 36.7293 110.996C36.7293 110.596 36.8063 110.267 36.9601 110.009C37.114 109.75 37.3218 109.545 37.5834 109.395C37.845 109.244 38.1373 109.13 38.4605 109.053C38.7836 108.976 39.113 108.917 39.4484 108.877C39.8731 108.828 40.2178 108.788 40.4825 108.757C40.7472 108.724 40.9395 108.67 41.0596 108.596C41.1796 108.522 41.2396 108.402 41.2396 108.236V108.203C41.2396 107.8 41.1257 107.488 40.898 107.266C40.6733 107.045 40.3379 106.934 39.8916 106.934C39.4269 106.934 39.0606 107.037 38.7929 107.243C38.5282 107.446 38.3451 107.673 38.2435 107.922L36.9463 107.626C37.1002 107.196 37.3248 106.848 37.6203 106.583C37.9188 106.315 38.262 106.121 38.6498 106.001C39.0376 105.878 39.4453 105.817 39.8731 105.817C40.1563 105.817 40.4564 105.851 40.7733 105.918C41.0934 105.983 41.392 106.103 41.6689 106.278C41.949 106.454 42.1783 106.705 42.3568 107.031C42.5353 107.354 42.6246 107.774 42.6246 108.291V113H41.2765V112.031H41.2211C41.1319 112.209 40.998 112.384 40.8195 112.557C40.641 112.729 40.4117 112.872 40.1317 112.986C39.8516 113.1 39.5161 113.157 39.1253 113.157ZM39.4253 112.049C39.807 112.049 40.1332 111.974 40.404 111.823C40.6779 111.672 40.8857 111.475 41.0273 111.232C41.1719 110.986 41.2442 110.723 41.2442 110.442V109.528C41.195 109.578 41.0996 109.624 40.958 109.667C40.8195 109.707 40.661 109.742 40.4825 109.773C40.304 109.801 40.1301 109.827 39.9608 109.852C39.7916 109.873 39.65 109.892 39.5361 109.907C39.2684 109.941 39.0237 109.998 38.8021 110.078C38.5836 110.158 38.4082 110.273 38.2758 110.424C38.1466 110.572 38.0819 110.769 38.0819 111.015C38.0819 111.357 38.2081 111.615 38.4605 111.79C38.7129 111.963 39.0345 112.049 39.4253 112.049ZM47.7731 105.909V107.017H43.8999V105.909H47.7731ZM44.9386 104.21H46.3189V110.918C46.3189 111.186 46.3589 111.387 46.4389 111.523C46.5189 111.655 46.622 111.746 46.7482 111.795C46.8775 111.841 47.0175 111.864 47.1683 111.864C47.2791 111.864 47.3761 111.857 47.4592 111.841C47.5423 111.826 47.6069 111.814 47.6531 111.804L47.9023 112.945C47.8223 112.975 47.7085 113.006 47.5607 113.037C47.413 113.071 47.2283 113.089 47.0067 113.092C46.6436 113.098 46.305 113.034 45.9911 112.898C45.6772 112.763 45.4233 112.554 45.2294 112.271C45.0355 111.987 44.9386 111.632 44.9386 111.204V104.21ZM54.804 113.157C54.3546 113.157 53.9484 113.074 53.5852 112.908C53.2221 112.738 52.9343 112.494 52.7219 112.174C52.5127 111.854 52.408 111.461 52.408 110.996C52.408 110.596 52.485 110.267 52.6388 110.009C52.7927 109.75 53.0005 109.545 53.2621 109.395C53.5237 109.244 53.8161 109.13 54.1392 109.053C54.4624 108.976 54.7917 108.917 55.1271 108.877C55.5518 108.828 55.8965 108.788 56.1612 108.757C56.4259 108.724 56.6183 108.67 56.7383 108.596C56.8583 108.522 56.9183 108.402 56.9183 108.236V108.203C56.9183 107.8 56.8045 107.488 56.5767 107.266C56.352 107.045 56.0166 106.934 55.5703 106.934C55.1056 106.934 54.7393 107.037 54.4716 107.243C54.2069 107.446 54.0238 107.673 53.9222 107.922L52.625 107.626C52.7789 107.196 53.0036 106.848 53.299 106.583C53.5975 106.315 53.9407 106.121 54.3285 106.001C54.7163 105.878 55.1241 105.817 55.5518 105.817C55.835 105.817 56.1351 105.851 56.4521 105.918C56.7721 105.983 57.0707 106.103 57.3477 106.278C57.6277 106.454 57.857 106.705 58.0355 107.031C58.214 107.354 58.3033 107.774 58.3033 108.291V113H56.9553V112.031H56.8999C56.8106 112.209 56.6767 112.384 56.4982 112.557C56.3197 112.729 56.0904 112.872 55.8104 112.986C55.5303 113.1 55.1948 113.157 54.804 113.157ZM55.104 112.049C55.4857 112.049 55.8119 111.974 56.0827 111.823C56.3567 111.672 56.5644 111.475 56.706 111.232C56.8506 110.986 56.9229 110.723 56.9229 110.442V109.528C56.8737 109.578 56.7783 109.624 56.6367 109.667C56.4982 109.707 56.3397 109.742 56.1612 109.773C55.9827 109.801 55.8088 109.827 55.6396 109.852C55.4703 109.873 55.3287 109.892 55.2148 109.907C54.9471 109.941 54.7024 109.998 54.4808 110.078C54.2623 110.158 54.0869 110.273 53.9545 110.424C53.8253 110.572 53.7607 110.769 53.7607 111.015C53.7607 111.357 53.8868 111.615 54.1392 111.79C54.3916 111.963 54.7132 112.049 55.104 112.049ZM61.5221 103.545V113H60.1418V103.545H61.5221ZM64.7594 103.545V113H63.3791V103.545H64.7594Z" fill="#8F362E"/>
<path d="M74.9588 100.499V116.047H74.0355V100.499H74.9588Z" fill="#D5D4D0"/>
<path d="M89.5581 106.029C89.5089 105.592 89.3057 105.254 88.9487 105.013C88.5917 104.77 88.1424 104.649 87.6007 104.649C87.2129 104.649 86.8775 104.71 86.5943 104.833C86.3112 104.953 86.0911 105.12 85.9342 105.332C85.7803 105.541 85.7033 105.78 85.7033 106.048C85.7033 106.272 85.7557 106.466 85.8603 106.629C85.968 106.792 86.1081 106.929 86.2804 107.04C86.4558 107.148 86.6436 107.239 86.8436 107.312C87.0437 107.383 87.236 107.442 87.4207 107.488L88.344 107.728C88.6456 107.802 88.9549 107.902 89.2719 108.028C89.5889 108.154 89.8828 108.32 90.1536 108.527C90.4245 108.733 90.643 108.988 90.8092 109.293C90.9784 109.598 91.0631 109.962 91.0631 110.387C91.0631 110.923 90.9246 111.398 90.6476 111.814C90.3737 112.229 89.9751 112.557 89.4519 112.797C88.9318 113.037 88.3024 113.157 87.5638 113.157C86.8559 113.157 86.2435 113.045 85.7264 112.82C85.2094 112.595 84.8047 112.277 84.5123 111.864C84.2199 111.449 84.0583 110.956 84.0276 110.387H85.4587C85.4864 110.729 85.5972 111.013 85.7911 111.241C85.988 111.466 86.2389 111.634 86.5435 111.744C86.8513 111.852 87.1883 111.906 87.5546 111.906C87.9577 111.906 88.3163 111.843 88.6302 111.717C88.9472 111.587 89.1965 111.409 89.3781 111.181C89.5596 110.95 89.6504 110.681 89.6504 110.373C89.6504 110.093 89.5704 109.864 89.4104 109.685C89.2534 109.507 89.0395 109.359 88.7687 109.242C88.5009 109.125 88.1978 109.022 87.8592 108.933L86.7421 108.628C85.985 108.422 85.3848 108.119 84.9416 107.719C84.5015 107.319 84.2815 106.789 84.2815 106.131C84.2815 105.586 84.4292 105.11 84.7247 104.704C85.0201 104.298 85.4202 103.982 85.9249 103.758C86.4297 103.53 86.999 103.416 87.633 103.416C88.2732 103.416 88.8379 103.529 89.3273 103.753C89.8197 103.978 90.2075 104.287 90.4906 104.681C90.7738 105.072 90.9215 105.521 90.9338 106.029H89.5581ZM94.0372 103.545V113H92.6569V103.545H94.0372ZM95.8942 113V105.909H97.2745V113H95.8942ZM96.5913 104.815C96.3513 104.815 96.145 104.735 95.9727 104.575C95.8034 104.412 95.7188 104.218 95.7188 103.993C95.7188 103.766 95.8034 103.572 95.9727 103.412C96.145 103.248 96.3513 103.167 96.5913 103.167C96.8314 103.167 97.036 103.248 97.2053 103.412C97.3776 103.572 97.4638 103.766 97.4638 103.993C97.4638 104.218 97.3776 104.412 97.2053 104.575C97.036 104.735 96.8314 104.815 96.5913 104.815ZM102.105 115.807C101.541 115.807 101.057 115.733 100.65 115.585C100.247 115.438 99.9179 115.242 99.6624 114.999C99.407 114.756 99.2162 114.49 99.09 114.2L100.276 113.711C100.36 113.846 100.47 113.989 100.609 114.14C100.75 114.294 100.941 114.425 101.181 114.533C101.424 114.64 101.737 114.694 102.118 114.694C102.642 114.694 103.074 114.567 103.416 114.311C103.757 114.059 103.928 113.656 103.928 113.102V111.707H103.84C103.757 111.858 103.637 112.026 103.48 112.211C103.326 112.395 103.114 112.555 102.843 112.691C102.572 112.826 102.22 112.894 101.786 112.894C101.226 112.894 100.721 112.763 100.272 112.501C99.8255 112.237 99.4716 111.847 99.21 111.333C98.9515 110.816 98.8222 110.181 98.8222 109.427C98.8222 108.673 98.9499 108.027 99.2054 107.488C99.4639 106.949 99.8178 106.537 100.267 106.251C100.717 105.961 101.226 105.817 101.795 105.817C102.235 105.817 102.591 105.891 102.862 106.038C103.132 106.183 103.343 106.352 103.494 106.546C103.648 106.74 103.766 106.911 103.85 107.059H103.951V105.909H105.304V113.157C105.304 113.766 105.162 114.266 104.879 114.657C104.596 115.048 104.213 115.337 103.73 115.525C103.249 115.713 102.708 115.807 102.105 115.807ZM102.091 111.749C102.488 111.749 102.823 111.657 103.097 111.472C103.374 111.284 103.583 111.016 103.725 110.669C103.87 110.318 103.942 109.898 103.942 109.408C103.942 108.931 103.871 108.511 103.73 108.148C103.588 107.785 103.38 107.502 103.106 107.299C102.832 107.092 102.494 106.989 102.091 106.989C101.675 106.989 101.329 107.097 101.052 107.312C100.775 107.525 100.566 107.814 100.424 108.18C100.286 108.547 100.216 108.956 100.216 109.408C100.216 109.873 100.287 110.281 100.429 110.632C100.57 110.983 100.78 111.257 101.057 111.453C101.337 111.65 101.681 111.749 102.091 111.749ZM108.535 108.79V113H107.155V103.545H108.517V107.063H108.605C108.771 106.682 109.025 106.378 109.366 106.154C109.708 105.929 110.154 105.817 110.705 105.817C111.191 105.817 111.616 105.917 111.979 106.117C112.345 106.317 112.629 106.615 112.829 107.012C113.032 107.406 113.133 107.899 113.133 108.49V113H111.753V108.656C111.753 108.136 111.619 107.733 111.351 107.446C111.084 107.157 110.711 107.012 110.234 107.012C109.908 107.012 109.616 107.082 109.357 107.22C109.102 107.359 108.9 107.562 108.752 107.83C108.608 108.094 108.535 108.414 108.535 108.79ZM118.285 105.909V107.017H114.412V105.909H118.285ZM115.451 104.21H116.831V110.918C116.831 111.186 116.871 111.387 116.951 111.523C117.031 111.655 117.134 111.746 117.26 111.795C117.39 111.841 117.53 111.864 117.681 111.864C117.791 111.864 117.888 111.857 117.971 111.841C118.054 111.826 118.119 111.814 118.165 111.804L118.415 112.945C118.335 112.975 118.221 113.006 118.073 113.037C117.925 113.071 117.741 113.089 117.519 113.092C117.156 113.098 116.817 113.034 116.503 112.898C116.189 112.763 115.936 112.554 115.742 112.271C115.548 111.987 115.451 111.632 115.451 111.204V104.21ZM121.345 103.545V113H119.965V103.545H121.345ZM124.074 115.659C123.868 115.659 123.68 115.642 123.511 115.608C123.342 115.578 123.216 115.544 123.133 115.507L123.465 114.376C123.717 114.443 123.942 114.473 124.139 114.463C124.336 114.454 124.51 114.38 124.661 114.242C124.815 114.103 124.95 113.877 125.067 113.563L125.238 113.092L122.643 105.909H124.121L125.916 111.412H125.99L127.786 105.909H129.268L126.346 113.946C126.21 114.316 126.038 114.628 125.829 114.884C125.619 115.142 125.37 115.336 125.081 115.465C124.791 115.594 124.456 115.659 124.074 115.659Z" fill="#E05547"/>
<path d="M138.959 100.499V116.047H138.035V100.499H138.959Z" fill="#D5D4D0"/>
<path d="M148.246 103.545H149.977L152.987 110.895H153.098L156.108 103.545H157.839V113H156.482V106.158H156.394L153.605 112.986H152.479L149.691 106.154H149.603V113H148.246V103.545ZM162.789 113.143C162.124 113.143 161.544 112.991 161.048 112.686C160.553 112.381 160.168 111.955 159.894 111.407C159.62 110.859 159.483 110.219 159.483 109.487C159.483 108.751 159.62 108.108 159.894 107.557C160.168 107.006 160.553 106.578 161.048 106.274C161.544 105.969 162.124 105.817 162.789 105.817C163.454 105.817 164.034 105.969 164.529 106.274C165.025 106.578 165.409 107.006 165.683 107.557C165.957 108.108 166.094 108.751 166.094 109.487C166.094 110.219 165.957 110.859 165.683 111.407C165.409 111.955 165.025 112.381 164.529 112.686C164.034 112.991 163.454 113.143 162.789 113.143ZM162.793 111.984C163.224 111.984 163.581 111.871 163.864 111.643C164.148 111.415 164.357 111.112 164.492 110.733C164.631 110.355 164.7 109.938 164.7 109.482C164.7 109.03 164.631 108.614 164.492 108.236C164.357 107.854 164.148 107.548 163.864 107.317C163.581 107.086 163.224 106.971 162.793 106.971C162.359 106.971 161.999 107.086 161.713 107.317C161.43 107.548 161.219 107.854 161.081 108.236C160.945 108.614 160.878 109.03 160.878 109.482C160.878 109.938 160.945 110.355 161.081 110.733C161.219 111.112 161.43 111.415 161.713 111.643C161.999 111.871 162.359 111.984 162.793 111.984ZM170.289 113.138C169.717 113.138 169.206 112.992 168.757 112.7C168.31 112.404 167.96 111.984 167.704 111.44C167.452 110.892 167.326 110.235 167.326 109.468C167.326 108.702 167.453 108.047 167.709 107.502C167.967 106.957 168.321 106.54 168.771 106.251C169.22 105.961 169.729 105.817 170.299 105.817C170.739 105.817 171.093 105.891 171.36 106.038C171.631 106.183 171.841 106.352 171.988 106.546C172.139 106.74 172.256 106.911 172.339 107.059H172.422V103.545H173.803V113H172.455V111.897H172.339C172.256 112.047 172.136 112.22 171.979 112.414C171.825 112.608 171.613 112.777 171.342 112.922C171.071 113.066 170.72 113.138 170.289 113.138ZM170.594 111.961C170.991 111.961 171.327 111.857 171.6 111.647C171.877 111.435 172.087 111.141 172.228 110.766C172.373 110.39 172.445 109.953 172.445 109.455C172.445 108.962 172.375 108.531 172.233 108.162C172.091 107.793 171.884 107.505 171.61 107.299C171.336 107.092 170.997 106.989 170.594 106.989C170.179 106.989 169.832 107.097 169.555 107.312C169.278 107.528 169.069 107.822 168.928 108.194C168.789 108.567 168.72 108.987 168.72 109.455C168.72 109.929 168.791 110.355 168.932 110.733C169.074 111.112 169.283 111.412 169.56 111.634C169.84 111.852 170.185 111.961 170.594 111.961ZM178.829 113.143C178.13 113.143 177.528 112.994 177.024 112.695C176.522 112.394 176.134 111.971 175.86 111.426C175.59 110.878 175.454 110.236 175.454 109.501C175.454 108.774 175.59 108.134 175.86 107.58C176.134 107.026 176.516 106.594 177.005 106.283C177.498 105.972 178.073 105.817 178.732 105.817C179.132 105.817 179.52 105.883 179.895 106.015C180.271 106.148 180.608 106.355 180.906 106.638C181.205 106.922 181.44 107.289 181.612 107.742C181.785 108.191 181.871 108.737 181.871 109.381V109.87H176.234V108.836H180.518C180.518 108.473 180.445 108.151 180.297 107.871C180.149 107.588 179.941 107.365 179.674 107.202C179.409 107.039 179.098 106.957 178.741 106.957C178.353 106.957 178.015 107.052 177.725 107.243C177.439 107.431 177.218 107.677 177.061 107.982C176.907 108.283 176.83 108.611 176.83 108.965V109.773C176.83 110.247 176.913 110.65 177.079 110.983C177.248 111.315 177.484 111.569 177.785 111.744C178.087 111.917 178.439 112.003 178.843 112.003C179.104 112.003 179.343 111.966 179.558 111.892C179.774 111.815 179.96 111.701 180.117 111.55C180.274 111.4 180.394 111.213 180.477 110.992L181.783 111.227C181.679 111.612 181.491 111.949 181.22 112.238C180.952 112.525 180.615 112.748 180.209 112.908C179.806 113.065 179.346 113.143 178.829 113.143ZM183.403 113V105.909H184.737V107.036H184.811C184.94 106.654 185.168 106.354 185.494 106.135C185.823 105.914 186.195 105.803 186.611 105.803C186.697 105.803 186.799 105.806 186.916 105.812C187.036 105.818 187.13 105.826 187.197 105.835V107.156C187.142 107.14 187.043 107.123 186.902 107.105C186.76 107.083 186.619 107.072 186.477 107.072C186.151 107.072 185.86 107.142 185.605 107.28C185.352 107.416 185.152 107.605 185.004 107.848C184.857 108.088 184.783 108.362 184.783 108.67V113H183.403ZM190.392 113.157C189.943 113.157 189.536 113.074 189.173 112.908C188.81 112.738 188.522 112.494 188.31 112.174C188.101 111.854 187.996 111.461 187.996 110.996C187.996 110.596 188.073 110.267 188.227 110.009C188.381 109.75 188.588 109.545 188.85 109.395C189.112 109.244 189.404 109.13 189.727 109.053C190.05 108.976 190.38 108.917 190.715 108.877C191.14 108.828 191.484 108.788 191.749 108.757C192.014 108.724 192.206 108.67 192.326 108.596C192.446 108.522 192.506 108.402 192.506 108.236V108.203C192.506 107.8 192.392 107.488 192.165 107.266C191.94 107.045 191.604 106.934 191.158 106.934C190.693 106.934 190.327 107.037 190.059 107.243C189.795 107.446 189.612 107.673 189.51 107.922L188.213 107.626C188.367 107.196 188.591 106.848 188.887 106.583C189.185 106.315 189.529 106.121 189.916 106.001C190.304 105.878 190.712 105.817 191.14 105.817C191.423 105.817 191.723 105.851 192.04 105.918C192.36 105.983 192.659 106.103 192.936 106.278C193.216 106.454 193.445 106.705 193.623 107.031C193.802 107.354 193.891 107.774 193.891 108.291V113H192.543V112.031H192.488C192.398 112.209 192.265 112.384 192.086 112.557C191.908 112.729 191.678 112.872 191.398 112.986C191.118 113.1 190.783 113.157 190.392 113.157ZM190.692 112.049C191.074 112.049 191.4 111.974 191.671 111.823C191.945 111.672 192.152 111.475 192.294 111.232C192.439 110.986 192.511 110.723 192.511 110.442V109.528C192.462 109.578 192.366 109.624 192.225 109.667C192.086 109.707 191.928 109.742 191.749 109.773C191.571 109.801 191.397 109.827 191.227 109.852C191.058 109.873 190.917 109.892 190.803 109.907C190.535 109.941 190.29 109.998 190.069 110.078C189.85 110.158 189.675 110.273 189.542 110.424C189.413 110.572 189.349 110.769 189.349 111.015C189.349 111.357 189.475 111.615 189.727 111.79C189.979 111.963 190.301 112.049 190.692 112.049ZM199.04 105.909V107.017H195.166V105.909H199.04ZM196.205 104.21H197.585V110.918C197.585 111.186 197.626 111.387 197.706 111.523C197.786 111.655 197.889 111.746 198.015 111.795C198.144 111.841 198.284 111.864 198.435 111.864C198.546 111.864 198.643 111.857 198.726 111.841C198.809 111.826 198.873 111.814 198.92 111.804L199.169 112.945C199.089 112.975 198.975 113.006 198.827 113.037C198.68 113.071 198.495 113.089 198.273 113.092C197.91 113.098 197.572 113.034 197.258 112.898C196.944 112.763 196.69 112.554 196.496 112.271C196.302 111.987 196.205 111.632 196.205 111.204V104.21ZM203.547 113.143C202.848 113.143 202.246 112.994 201.741 112.695C201.24 112.394 200.852 111.971 200.578 111.426C200.307 110.878 200.172 110.236 200.172 109.501C200.172 108.774 200.307 108.134 200.578 107.58C200.852 107.026 201.234 106.594 201.723 106.283C202.215 105.972 202.791 105.817 203.45 105.817C203.85 105.817 204.237 105.883 204.613 106.015C204.988 106.148 205.325 106.355 205.624 106.638C205.922 106.922 206.158 107.289 206.33 107.742C206.503 108.191 206.589 108.737 206.589 109.381V109.87H200.952V108.836H205.236C205.236 108.473 205.162 108.151 205.015 107.871C204.867 107.588 204.659 107.365 204.391 107.202C204.127 107.039 203.816 106.957 203.459 106.957C203.071 106.957 202.732 107.052 202.443 107.243C202.157 107.431 201.935 107.677 201.778 107.982C201.625 108.283 201.548 108.611 201.548 108.965V109.773C201.548 110.247 201.631 110.65 201.797 110.983C201.966 111.315 202.202 111.569 202.503 111.744C202.805 111.917 203.157 112.003 203.56 112.003C203.822 112.003 204.06 111.966 204.276 111.892C204.491 111.815 204.678 111.701 204.835 111.55C204.991 111.4 205.112 111.213 205.195 110.992L206.501 111.227C206.396 111.612 206.209 111.949 205.938 112.238C205.67 112.525 205.333 112.748 204.927 112.908C204.524 113.065 204.064 113.143 203.547 113.143ZM209.501 103.545V113H208.12V103.545H209.501ZM212.23 115.659C212.024 115.659 211.836 115.642 211.667 115.608C211.498 115.578 211.371 115.544 211.288 115.507L211.621 114.376C211.873 114.443 212.098 114.473 212.295 114.463C212.492 114.454 212.666 114.38 212.816 114.242C212.97 114.103 213.106 113.877 213.223 113.563L213.393 113.092L210.799 105.909H212.276L214.072 111.412H214.146L215.942 105.909H217.424L214.501 113.946C214.366 114.316 214.194 114.628 213.984 114.884C213.775 115.142 213.526 115.336 213.237 115.465C212.947 115.594 212.612 115.659 212.23 115.659Z" fill="#959490"/>
<path d="M226.959 100.499V116.047H226.035V100.499H226.959Z" fill="#D5D4D0"/>
<path d="M237.07 103.545L239.702 111.246H239.808L242.439 103.545H243.981L240.579 113H238.931L235.528 103.545H237.07ZM247.581 113.143C246.882 113.143 246.28 112.994 245.776 112.695C245.274 112.394 244.886 111.971 244.612 111.426C244.341 110.878 244.206 110.236 244.206 109.501C244.206 108.774 244.341 108.134 244.612 107.58C244.886 107.026 245.268 106.594 245.757 106.283C246.25 105.972 246.825 105.817 247.484 105.817C247.884 105.817 248.272 105.883 248.647 106.015C249.023 106.148 249.36 106.355 249.658 106.638C249.957 106.922 250.192 107.289 250.364 107.742C250.537 108.191 250.623 108.737 250.623 109.381V109.87H244.986V108.836H249.27C249.27 108.473 249.196 108.151 249.049 107.871C248.901 107.588 248.693 107.365 248.426 107.202C248.161 107.039 247.85 106.957 247.493 106.957C247.105 106.957 246.767 107.052 246.477 107.243C246.191 107.431 245.97 107.677 245.813 107.982C245.659 108.283 245.582 108.611 245.582 108.965V109.773C245.582 110.247 245.665 110.65 245.831 110.983C246 111.315 246.236 111.569 246.537 111.744C246.839 111.917 247.191 112.003 247.595 112.003C247.856 112.003 248.095 111.966 248.31 111.892C248.526 111.815 248.712 111.701 248.869 111.55C249.026 111.4 249.146 111.213 249.229 110.992L250.535 111.227C250.431 111.612 250.243 111.949 249.972 112.238C249.704 112.525 249.367 112.748 248.961 112.908C248.558 113.065 248.098 113.143 247.581 113.143ZM252.154 113V105.909H253.489V107.036H253.562C253.692 106.654 253.92 106.354 254.246 106.135C254.575 105.914 254.947 105.803 255.363 105.803C255.449 105.803 255.551 105.806 255.668 105.812C255.788 105.818 255.882 105.826 255.949 105.835V107.156C255.894 107.14 255.795 107.123 255.654 107.105C255.512 107.083 255.371 107.072 255.229 107.072C254.903 107.072 254.612 107.142 254.357 107.28C254.104 107.416 253.904 107.605 253.756 107.848C253.609 108.088 253.535 108.362 253.535 108.67V113H252.154ZM258.232 115.659C258.026 115.659 257.838 115.642 257.669 115.608C257.5 115.578 257.373 115.544 257.29 115.507L257.623 114.376C257.875 114.443 258.1 114.473 258.297 114.463C258.494 114.454 258.668 114.38 258.818 114.242C258.972 114.103 259.108 113.877 259.225 113.563L259.395 113.092L256.801 105.909H258.278L260.074 111.412H260.148L261.944 105.909H263.426L260.503 113.946C260.368 114.316 260.196 114.628 259.986 114.884C259.777 115.142 259.528 115.336 259.238 115.465C258.949 115.594 258.614 115.659 258.232 115.659Z" fill="#169973"/>
<path d="M272.959 100.499V116.047H272.035V100.499H272.959Z" fill="#D5D4D0"/>
<path d="M282.081 113V103.545H288.009V104.773H283.508V107.654H287.699V108.877H283.508V111.772H288.064V113H282.081ZM290.893 105.909L292.458 108.67L294.037 105.909H295.546L293.335 109.455L295.565 113H294.055L292.458 110.35L290.865 113H289.351L291.558 109.455L289.379 105.909H290.893ZM300.274 105.909V107.017H296.4V105.909H300.274ZM297.439 104.21H298.819V110.918C298.819 111.186 298.859 111.387 298.939 111.523C299.019 111.655 299.123 111.746 299.249 111.795C299.378 111.841 299.518 111.864 299.669 111.864C299.78 111.864 299.877 111.857 299.96 111.841C300.043 111.826 300.107 111.814 300.154 111.804L300.403 112.945C300.323 112.975 300.209 113.006 300.061 113.037C299.913 113.071 299.729 113.089 299.507 113.092C299.144 113.098 298.806 113.034 298.492 112.898C298.178 112.763 297.924 112.554 297.73 112.271C297.536 111.987 297.439 111.632 297.439 111.204V104.21ZM301.8 113V105.909H303.135V107.036H303.208C303.338 106.654 303.566 106.354 303.892 106.135C304.221 105.914 304.593 105.803 305.009 105.803C305.095 105.803 305.197 105.806 305.314 105.812C305.434 105.818 305.528 105.826 305.595 105.835V107.156C305.54 107.14 305.441 107.123 305.3 107.105C305.158 107.083 305.017 107.072 304.875 107.072C304.549 107.072 304.258 107.142 304.003 107.28C303.75 107.416 303.55 107.605 303.402 107.848C303.255 108.088 303.181 108.362 303.181 108.67V113H301.8ZM309.592 113.143C308.893 113.143 308.292 112.994 307.787 112.695C307.285 112.394 306.897 111.971 306.624 111.426C306.353 110.878 306.217 110.236 306.217 109.501C306.217 108.774 306.353 108.134 306.624 107.58C306.897 107.026 307.279 106.594 307.768 106.283C308.261 105.972 308.836 105.817 309.495 105.817C309.895 105.817 310.283 105.883 310.658 106.015C311.034 106.148 311.371 106.355 311.669 106.638C311.968 106.922 312.203 107.289 312.376 107.742C312.548 108.191 312.634 108.737 312.634 109.381V109.87H306.997V108.836H311.282C311.282 108.473 311.208 108.151 311.06 107.871C310.912 107.588 310.705 107.365 310.437 107.202C310.172 107.039 309.861 106.957 309.504 106.957C309.116 106.957 308.778 107.052 308.489 107.243C308.202 107.431 307.981 107.677 307.824 107.982C307.67 108.283 307.593 108.611 307.593 108.965V109.773C307.593 110.247 307.676 110.65 307.842 110.983C308.012 111.315 308.247 111.569 308.549 111.744C308.85 111.917 309.203 112.003 309.606 112.003C309.867 112.003 310.106 111.966 310.321 111.892C310.537 111.815 310.723 111.701 310.88 111.55C311.037 111.4 311.157 111.213 311.24 110.992L312.546 111.227C312.442 111.612 312.254 111.949 311.983 112.238C311.716 112.525 311.379 112.748 310.972 112.908C310.569 113.065 310.109 113.143 309.592 113.143ZM314.166 113V105.909H315.491V107.063H315.578C315.726 106.672 315.968 106.368 316.303 106.149C316.639 105.928 317.04 105.817 317.508 105.817C317.982 105.817 318.379 105.928 318.699 106.149C319.022 106.371 319.261 106.675 319.415 107.063H319.489C319.658 106.685 319.927 106.383 320.296 106.158C320.666 105.931 321.106 105.817 321.617 105.817C322.26 105.817 322.785 106.018 323.191 106.422C323.6 106.825 323.805 107.433 323.805 108.245V113H322.425V108.374C322.425 107.894 322.294 107.546 322.032 107.331C321.771 107.116 321.458 107.008 321.095 107.008C320.646 107.008 320.296 107.146 320.047 107.423C319.798 107.697 319.673 108.05 319.673 108.48V113H318.297V108.287C318.297 107.902 318.177 107.593 317.937 107.359C317.697 107.125 317.385 107.008 317 107.008C316.739 107.008 316.497 107.077 316.275 107.216C316.057 107.351 315.88 107.54 315.745 107.783C315.612 108.027 315.546 108.308 315.546 108.628V113H314.166ZM328.711 113.143C328.012 113.143 327.411 112.994 326.906 112.695C326.404 112.394 326.017 111.971 325.743 111.426C325.472 110.878 325.336 110.236 325.336 109.501C325.336 108.774 325.472 108.134 325.743 107.58C326.017 107.026 326.398 106.594 326.888 106.283C327.38 105.972 327.956 105.817 328.614 105.817C329.014 105.817 329.402 105.883 329.777 106.015C330.153 106.148 330.49 106.355 330.788 106.638C331.087 106.922 331.322 107.289 331.495 107.742C331.667 108.191 331.753 108.737 331.753 109.381V109.87H326.117V108.836H330.401C330.401 108.473 330.327 108.151 330.179 107.871C330.031 107.588 329.824 107.365 329.556 107.202C329.291 107.039 328.98 106.957 328.623 106.957C328.236 106.957 327.897 107.052 327.608 107.243C327.322 107.431 327.1 107.677 326.943 107.982C326.789 108.283 326.712 108.611 326.712 108.965V109.773C326.712 110.247 326.795 110.65 326.961 110.983C327.131 111.315 327.366 111.569 327.668 111.744C327.969 111.917 328.322 112.003 328.725 112.003C328.987 112.003 329.225 111.966 329.44 111.892C329.656 111.815 329.842 111.701 329.999 111.55C330.156 111.4 330.276 111.213 330.359 110.992L331.666 111.227C331.561 111.612 331.373 111.949 331.102 112.238C330.835 112.525 330.498 112.748 330.091 112.908C329.688 113.065 329.228 113.143 328.711 113.143ZM334.665 103.545V113H333.285V103.545H334.665ZM337.395 115.659C337.188 115.659 337.001 115.642 336.831 115.608C336.662 115.578 336.536 115.544 336.453 115.507L336.785 114.376C337.038 114.443 337.262 114.473 337.459 114.463C337.656 114.454 337.83 114.38 337.981 114.242C338.135 114.103 338.27 113.877 338.387 113.563L338.558 113.092L335.964 105.909H337.441L339.237 111.412H339.311L341.106 105.909H342.588L339.666 113.946C339.531 114.316 339.358 114.628 339.149 114.884C338.94 115.142 338.69 115.336 338.401 115.465C338.112 115.594 337.776 115.659 337.395 115.659Z" fill="#176D51"/>
</svg>
