<svg width="353" height="118" viewBox="0 0 353 118" fill="none" xmlns="http://www.w3.org/2000/svg">
<path d="M0 17C0 14.7909 1.79086 13 4 13H64V77H4C1.79086 77 0 75.2091 0 73V17Z" fill="#B34439"/>
<path d="M21.5732 38.3636V50H19.8118V40.125H19.7436L16.9595 41.9432V40.2614L19.8629 38.3636H21.5732ZM28.6527 50.1591C27.8383 50.1591 27.1186 50.0189 26.4936 49.7386C25.8724 49.4583 25.3857 49.072 25.0334 48.5795C24.6811 48.0871 24.5069 47.5265 24.5107 46.8977C24.5069 46.4053 24.6072 45.9527 24.8118 45.5398C25.0201 45.1231 25.3023 44.7765 25.6584 44.5C26.0144 44.2197 26.4122 44.0417 26.8516 43.9659V43.8977C26.272 43.7576 25.808 43.447 25.4595 42.9659C25.111 42.4848 24.9387 41.9318 24.9425 41.3068C24.9387 40.7121 25.0959 40.1818 25.4141 39.7159C25.736 39.2462 26.1773 38.8769 26.7379 38.608C27.2985 38.339 27.9368 38.2045 28.6527 38.2045C29.361 38.2045 29.9936 38.3409 30.5504 38.6136C31.111 38.8826 31.5523 39.2519 31.8743 39.7216C32.1963 40.1875 32.3591 40.7159 32.3629 41.3068C32.3591 41.9318 32.1811 42.4848 31.8288 42.9659C31.4766 43.447 31.0182 43.7576 30.4538 43.8977V43.9659C30.8894 44.0417 31.2815 44.2197 31.63 44.5C31.9822 44.7765 32.2625 45.1231 32.4709 45.5398C32.683 45.9527 32.791 46.4053 32.7947 46.8977C32.791 47.5265 32.6129 48.0871 32.2607 48.5795C31.9084 49.072 31.4197 49.4583 30.7947 49.7386C30.1735 50.0189 29.4595 50.1591 28.6527 50.1591ZM28.6527 48.7216C29.1338 48.7216 29.5504 48.642 29.9027 48.483C30.255 48.3201 30.5277 48.0947 30.7209 47.8068C30.9141 47.5152 31.0125 47.1742 31.0163 46.7841C31.0125 46.3788 30.9065 46.0208 30.6982 45.7102C30.4936 45.3996 30.2152 45.1553 29.8629 44.9773C29.5107 44.7992 29.1072 44.7102 28.6527 44.7102C28.1944 44.7102 27.7872 44.7992 27.4311 44.9773C27.075 45.1553 26.7947 45.3996 26.5902 45.7102C26.3857 46.0208 26.2853 46.3788 26.2891 46.7841C26.2853 47.1742 26.3781 47.5152 26.5675 47.8068C26.7607 48.0947 27.0353 48.3201 27.3913 48.483C27.7474 48.642 28.1679 48.7216 28.6527 48.7216ZM28.6527 43.3068C29.0391 43.3068 29.3819 43.2292 29.6811 43.0739C29.9804 42.9186 30.2152 42.7027 30.3857 42.4261C30.5599 42.1496 30.6489 41.8258 30.6527 41.4545C30.6489 41.0909 30.5618 40.7727 30.3913 40.5C30.2247 40.2273 29.9917 40.017 29.6925 39.8693C29.3932 39.7178 29.0466 39.642 28.6527 39.642C28.2512 39.642 27.8989 39.7178 27.5959 39.8693C27.2966 40.017 27.0637 40.2273 26.897 40.5C26.7304 40.7727 26.6489 41.0909 26.6527 41.4545C26.6489 41.8258 26.7322 42.1496 26.9027 42.4261C27.0732 42.7027 27.308 42.9186 27.6072 43.0739C27.9103 43.2292 28.2588 43.3068 28.6527 43.3068ZM40.9041 47.8182V47.2045C40.9041 46.7652 40.995 46.3636 41.1768 46C41.3625 45.6326 41.6314 45.339 41.9837 45.1193C42.3397 44.8958 42.7696 44.7841 43.2734 44.7841C43.7886 44.7841 44.2204 44.8939 44.5689 45.1136C44.9174 45.3333 45.1806 45.6269 45.3587 45.9943C45.5405 46.3617 45.6314 46.7652 45.6314 47.2045V47.8182C45.6314 48.2576 45.5405 48.661 45.3587 49.0284C45.1768 49.392 44.9098 49.6856 44.5575 49.9091C44.209 50.1288 43.781 50.2386 43.2734 50.2386C42.7621 50.2386 42.3303 50.1288 41.978 49.9091C41.6257 49.6856 41.3587 49.392 41.1768 49.0284C40.995 48.661 40.9041 48.2576 40.9041 47.8182ZM42.228 47.2045V47.8182C42.228 48.1439 42.3056 48.4394 42.4609 48.7045C42.6162 48.9697 42.8871 49.1023 43.2734 49.1023C43.656 49.1023 43.9231 48.9697 44.0746 48.7045C44.2261 48.4394 44.3018 48.1439 44.3018 47.8182V47.2045C44.3018 46.8788 44.228 46.5833 44.0803 46.3182C43.9363 46.053 43.6674 45.9205 43.2734 45.9205C42.8946 45.9205 42.6257 46.053 42.4666 46.3182C42.3075 46.5833 42.228 46.8788 42.228 47.2045ZM35.0518 41.1591V40.5455C35.0518 40.1061 35.1428 39.7027 35.3246 39.3352C35.5102 38.9678 35.7791 38.6742 36.1314 38.4545C36.4875 38.2348 36.9174 38.125 37.4212 38.125C37.9363 38.125 38.3681 38.2348 38.7166 38.4545C39.0651 38.6742 39.3284 38.9678 39.5064 39.3352C39.6844 39.7027 39.7734 40.1061 39.7734 40.5455V41.1591C39.7734 41.5985 39.6825 42.0019 39.5007 42.3693C39.3227 42.733 39.0575 43.0265 38.7053 43.25C38.3568 43.4697 37.9287 43.5795 37.4212 43.5795C36.906 43.5795 36.4723 43.4697 36.12 43.25C35.7715 43.0265 35.5064 42.733 35.3246 42.3693C35.1428 42.0019 35.0518 41.5985 35.0518 41.1591ZM36.3814 40.5455V41.1591C36.3814 41.4848 36.4571 41.7803 36.6087 42.0455C36.764 42.3106 37.0348 42.4432 37.4212 42.4432C37.8 42.4432 38.0651 42.3106 38.2166 42.0455C38.3719 41.7803 38.4496 41.4848 38.4496 41.1591V40.5455C38.4496 40.2197 38.3757 39.9242 38.228 39.6591C38.0803 39.3939 37.8113 39.2614 37.4212 39.2614C37.0424 39.2614 36.7734 39.3939 36.6143 39.6591C36.459 39.9242 36.3814 40.2197 36.3814 40.5455ZM35.5916 50L43.5916 38.3636H44.9496L36.9496 50H35.5916Z" fill="white"/>
<rect width="109" height="64" transform="translate(64 13)" fill="#F56A58"/>
<path d="M107.108 50.1591C106.328 50.1591 105.631 50.0246 105.017 49.7557C104.407 49.4867 103.924 49.1136 103.568 48.6364C103.216 48.1553 103.027 47.5985 103 46.9659H104.784C104.807 47.3106 104.922 47.6098 105.131 47.8636C105.343 48.1136 105.619 48.3068 105.96 48.4432C106.301 48.5795 106.68 48.6477 107.097 48.6477C107.555 48.6477 107.96 48.5682 108.312 48.4091C108.669 48.25 108.947 48.0284 109.148 47.7443C109.348 47.4564 109.449 47.125 109.449 46.75C109.449 46.3598 109.348 46.017 109.148 45.7216C108.951 45.4223 108.661 45.1875 108.278 45.017C107.9 44.8466 107.441 44.7614 106.903 44.7614H105.92V43.3295H106.903C107.335 43.3295 107.714 43.2519 108.04 43.0966C108.369 42.9413 108.627 42.7254 108.812 42.4489C108.998 42.1686 109.091 41.8409 109.091 41.4659C109.091 41.1061 109.009 40.7936 108.847 40.5284C108.688 40.2595 108.46 40.0492 108.165 39.8977C107.873 39.7462 107.528 39.6705 107.131 39.6705C106.752 39.6705 106.398 39.7405 106.068 39.8807C105.742 40.017 105.477 40.214 105.273 40.4716C105.068 40.7254 104.958 41.0303 104.943 41.3864H103.244C103.263 40.7576 103.449 40.2045 103.801 39.7273C104.157 39.25 104.627 38.8769 105.21 38.608C105.794 38.339 106.441 38.2045 107.153 38.2045C107.9 38.2045 108.544 38.3504 109.085 38.642C109.631 38.9299 110.051 39.3144 110.347 39.7955C110.646 40.2765 110.794 40.803 110.79 41.375C110.794 42.0265 110.612 42.5795 110.244 43.0341C109.881 43.4886 109.396 43.7936 108.79 43.9489V44.0398C109.563 44.1572 110.161 44.464 110.585 44.9602C111.013 45.4564 111.225 46.072 111.222 46.8068C111.225 47.447 111.047 48.0208 110.688 48.5284C110.331 49.036 109.845 49.4356 109.227 49.7273C108.61 50.0152 107.903 50.1591 107.108 50.1591ZM117.784 38.3636V50H116.023V40.125H115.955L113.17 41.9432V40.2614L116.074 38.3636H117.784ZM127.006 47.8182V47.2045C127.006 46.7652 127.097 46.3636 127.278 46C127.464 45.6326 127.733 45.339 128.085 45.1193C128.441 44.8958 128.871 44.7841 129.375 44.7841C129.89 44.7841 130.322 44.8939 130.67 45.1136C131.019 45.3333 131.282 45.6269 131.46 45.9943C131.642 46.3617 131.733 46.7652 131.733 47.2045V47.8182C131.733 48.2576 131.642 48.661 131.46 49.0284C131.278 49.392 131.011 49.6856 130.659 49.9091C130.311 50.1288 129.883 50.2386 129.375 50.2386C128.864 50.2386 128.432 50.1288 128.08 49.9091C127.727 49.6856 127.46 49.392 127.278 49.0284C127.097 48.661 127.006 48.2576 127.006 47.8182ZM128.33 47.2045V47.8182C128.33 48.1439 128.407 48.4394 128.562 48.7045C128.718 48.9697 128.989 49.1023 129.375 49.1023C129.758 49.1023 130.025 48.9697 130.176 48.7045C130.328 48.4394 130.403 48.1439 130.403 47.8182V47.2045C130.403 46.8788 130.33 46.5833 130.182 46.3182C130.038 46.053 129.769 45.9205 129.375 45.9205C128.996 45.9205 128.727 46.053 128.568 46.3182C128.409 46.5833 128.33 46.8788 128.33 47.2045ZM121.153 41.1591V40.5455C121.153 40.1061 121.244 39.7027 121.426 39.3352C121.612 38.9678 121.881 38.6742 122.233 38.4545C122.589 38.2348 123.019 38.125 123.523 38.125C124.038 38.125 124.47 38.2348 124.818 38.4545C125.167 38.6742 125.43 38.9678 125.608 39.3352C125.786 39.7027 125.875 40.1061 125.875 40.5455V41.1591C125.875 41.5985 125.784 42.0019 125.602 42.3693C125.424 42.733 125.159 43.0265 124.807 43.25C124.458 43.4697 124.03 43.5795 123.523 43.5795C123.008 43.5795 122.574 43.4697 122.222 43.25C121.873 43.0265 121.608 42.733 121.426 42.3693C121.244 42.0019 121.153 41.5985 121.153 41.1591ZM122.483 40.5455V41.1591C122.483 41.4848 122.559 41.7803 122.71 42.0455C122.866 42.3106 123.136 42.4432 123.523 42.4432C123.902 42.4432 124.167 42.3106 124.318 42.0455C124.473 41.7803 124.551 41.4848 124.551 41.1591V40.5455C124.551 40.2197 124.477 39.9242 124.33 39.6591C124.182 39.3939 123.913 39.2614 123.523 39.2614C123.144 39.2614 122.875 39.3939 122.716 39.6591C122.561 39.9242 122.483 40.2197 122.483 40.5455ZM121.693 50L129.693 38.3636H131.051L123.051 50H121.693Z" fill="white"/>
<rect x="173" width="3" height="90" rx="1.5" fill="#B5B4B0"/>
<rect width="137" height="64" transform="translate(176 13)" fill="#D5D4D0"/>
<path d="M240.803 50.1591C240.023 50.1591 239.326 50.0246 238.712 49.7557C238.103 49.4867 237.62 49.1136 237.263 48.6364C236.911 48.1553 236.722 47.5985 236.695 46.9659H238.479C238.502 47.3106 238.618 47.6098 238.826 47.8636C239.038 48.1136 239.315 48.3068 239.656 48.4432C239.996 48.5795 240.375 48.6477 240.792 48.6477C241.25 48.6477 241.656 48.5682 242.008 48.4091C242.364 48.25 242.642 48.0284 242.843 47.7443C243.044 47.4564 243.144 47.125 243.144 46.75C243.144 46.3598 243.044 46.017 242.843 45.7216C242.646 45.4223 242.356 45.1875 241.974 45.017C241.595 44.8466 241.137 44.7614 240.599 44.7614H239.616V43.3295H240.599C241.031 43.3295 241.409 43.2519 241.735 43.0966C242.065 42.9413 242.322 42.7254 242.508 42.4489C242.693 42.1686 242.786 41.8409 242.786 41.4659C242.786 41.1061 242.705 40.7936 242.542 40.5284C242.383 40.2595 242.156 40.0492 241.86 39.8977C241.568 39.7462 241.224 39.6705 240.826 39.6705C240.447 39.6705 240.093 39.7405 239.763 39.8807C239.438 40.017 239.173 40.214 238.968 40.4716C238.763 40.7254 238.654 41.0303 238.638 41.3864H236.94C236.959 40.7576 237.144 40.2045 237.496 39.7273C237.853 39.25 238.322 38.8769 238.906 38.608C239.489 38.339 240.137 38.2045 240.849 38.2045C241.595 38.2045 242.239 38.3504 242.781 38.642C243.326 38.9299 243.746 39.3144 244.042 39.7955C244.341 40.2765 244.489 40.803 244.485 41.375C244.489 42.0265 244.307 42.5795 243.94 43.0341C243.576 43.4886 243.091 43.7936 242.485 43.9489V44.0398C243.258 44.1572 243.856 44.464 244.281 44.9602C244.709 45.4564 244.921 46.072 244.917 46.8068C244.921 47.447 244.743 48.0208 244.383 48.5284C244.027 49.036 243.54 49.4356 242.923 49.7273C242.305 50.0152 241.599 50.1591 240.803 50.1591ZM250.934 38.2045C251.453 38.2083 251.964 38.303 252.468 38.4886C252.972 38.6742 253.426 38.9773 253.832 39.3977C254.241 39.8182 254.567 40.3864 254.809 41.1023C255.055 41.8144 255.18 42.7008 255.184 43.7614C255.184 44.7803 255.082 45.6875 254.877 46.483C254.673 47.2746 254.379 47.9432 253.996 48.4886C253.618 49.0341 253.157 49.4489 252.616 49.733C252.074 50.017 251.464 50.1591 250.786 50.1591C250.093 50.1591 249.478 50.0227 248.94 49.75C248.402 49.4773 247.964 49.1004 247.627 48.6193C247.29 48.1345 247.08 47.5777 246.996 46.9489H248.729C248.843 47.4489 249.074 47.8542 249.423 48.1648C249.775 48.4716 250.229 48.625 250.786 48.625C251.638 48.625 252.303 48.2538 252.781 47.5114C253.258 46.7652 253.498 45.7235 253.502 44.3864H253.411C253.214 44.7121 252.968 44.9924 252.673 45.2273C252.381 45.4621 252.053 45.6439 251.69 45.7727C251.326 45.9015 250.938 45.9659 250.525 45.9659C249.854 45.9659 249.245 45.8011 248.695 45.4716C248.146 45.142 247.709 44.6894 247.383 44.1136C247.057 43.5379 246.894 42.8807 246.894 42.142C246.894 41.4072 247.061 40.7405 247.394 40.142C247.731 39.5436 248.201 39.0701 248.803 38.7216C249.409 38.3693 250.12 38.197 250.934 38.2045ZM250.94 39.6818C250.496 39.6818 250.097 39.7917 249.741 40.0114C249.388 40.2273 249.11 40.5208 248.906 40.892C248.701 41.2595 248.599 41.6686 248.599 42.1193C248.599 42.5701 248.697 42.9792 248.894 43.3466C249.095 43.7102 249.368 44 249.712 44.2159C250.061 44.428 250.459 44.5341 250.906 44.5341C251.239 44.5341 251.549 44.4697 251.837 44.3409C252.125 44.2121 252.377 44.0341 252.593 43.8068C252.809 43.5758 252.978 43.3144 253.099 43.0227C253.22 42.7311 253.281 42.4242 253.281 42.1023C253.281 41.6742 253.178 41.2765 252.974 40.9091C252.773 40.5417 252.496 40.2462 252.144 40.0227C251.792 39.7955 251.39 39.6818 250.94 39.6818ZM263.31 47.8182V47.2045C263.31 46.7652 263.401 46.3636 263.583 46C263.769 45.6326 264.038 45.339 264.39 45.1193C264.746 44.8958 265.176 44.7841 265.68 44.7841C266.195 44.7841 266.627 44.8939 266.975 45.1136C267.324 45.3333 267.587 45.6269 267.765 45.9943C267.947 46.3617 268.038 46.7652 268.038 47.2045V47.8182C268.038 48.2576 267.947 48.661 267.765 49.0284C267.583 49.392 267.316 49.6856 266.964 49.9091C266.615 50.1288 266.187 50.2386 265.68 50.2386C265.168 50.2386 264.737 50.1288 264.384 49.9091C264.032 49.6856 263.765 49.392 263.583 49.0284C263.401 48.661 263.31 48.2576 263.31 47.8182ZM264.634 47.2045V47.8182C264.634 48.1439 264.712 48.4394 264.867 48.7045C265.022 48.9697 265.293 49.1023 265.68 49.1023C266.062 49.1023 266.329 48.9697 266.481 48.7045C266.632 48.4394 266.708 48.1439 266.708 47.8182V47.2045C266.708 46.8788 266.634 46.5833 266.487 46.3182C266.343 46.053 266.074 45.9205 265.68 45.9205C265.301 45.9205 265.032 46.053 264.873 46.3182C264.714 46.5833 264.634 46.8788 264.634 47.2045ZM257.458 41.1591V40.5455C257.458 40.1061 257.549 39.7027 257.731 39.3352C257.916 38.9678 258.185 38.6742 258.538 38.4545C258.894 38.2348 259.324 38.125 259.827 38.125C260.343 38.125 260.774 38.2348 261.123 38.4545C261.471 38.6742 261.735 38.9678 261.913 39.3352C262.091 39.7027 262.18 40.1061 262.18 40.5455V41.1591C262.18 41.5985 262.089 42.0019 261.907 42.3693C261.729 42.733 261.464 43.0265 261.112 43.25C260.763 43.4697 260.335 43.5795 259.827 43.5795C259.312 43.5795 258.879 43.4697 258.526 43.25C258.178 43.0265 257.913 42.733 257.731 42.3693C257.549 42.0019 257.458 41.5985 257.458 41.1591ZM258.788 40.5455V41.1591C258.788 41.4848 258.863 41.7803 259.015 42.0455C259.17 42.3106 259.441 42.4432 259.827 42.4432C260.206 42.4432 260.471 42.3106 260.623 42.0455C260.778 41.7803 260.856 41.4848 260.856 41.1591V40.5455C260.856 40.2197 260.782 39.9242 260.634 39.6591C260.487 39.3939 260.218 39.2614 259.827 39.2614C259.449 39.2614 259.18 39.3939 259.021 39.6591C258.865 39.9242 258.788 40.2197 258.788 40.5455ZM257.998 50L265.998 38.3636H267.356L259.356 50H257.998Z" fill="#555450"/>
<rect width="27" height="64" transform="translate(313 13)" fill="#20BE8E"/>
<path d="M319.871 50.1591C319.057 50.1591 318.337 50.0189 317.712 49.7386C317.091 49.4583 316.604 49.072 316.252 48.5795C315.9 48.0871 315.726 47.5265 315.729 46.8977C315.726 46.4053 315.826 45.9527 316.031 45.5398C316.239 45.1231 316.521 44.7765 316.877 44.5C317.233 44.2197 317.631 44.0417 318.07 43.9659V43.8977C317.491 43.7576 317.027 43.447 316.678 42.9659C316.33 42.4848 316.157 41.9318 316.161 41.3068C316.157 40.7121 316.315 40.1818 316.633 39.7159C316.955 39.2462 317.396 38.8769 317.957 38.608C318.517 38.339 319.156 38.2045 319.871 38.2045C320.58 38.2045 321.212 38.3409 321.769 38.6136C322.33 38.8826 322.771 39.2519 323.093 39.7216C323.415 40.1875 323.578 40.7159 323.582 41.3068C323.578 41.9318 323.4 42.4848 323.048 42.9659C322.695 43.447 322.237 43.7576 321.673 43.8977V43.9659C322.108 44.0417 322.5 44.2197 322.849 44.5C323.201 44.7765 323.481 45.1231 323.69 45.5398C323.902 45.9527 324.01 46.4053 324.013 46.8977C324.01 47.5265 323.832 48.0871 323.479 48.5795C323.127 49.072 322.638 49.4583 322.013 49.7386C321.392 50.0189 320.678 50.1591 319.871 50.1591ZM319.871 48.7216C320.353 48.7216 320.769 48.642 321.121 48.483C321.474 48.3201 321.746 48.0947 321.94 47.8068C322.133 47.5152 322.231 47.1742 322.235 46.7841C322.231 46.3788 322.125 46.0208 321.917 45.7102C321.712 45.3996 321.434 45.1553 321.082 44.9773C320.729 44.7992 320.326 44.7102 319.871 44.7102C319.413 44.7102 319.006 44.7992 318.65 44.9773C318.294 45.1553 318.013 45.3996 317.809 45.7102C317.604 46.0208 317.504 46.3788 317.508 46.7841C317.504 47.1742 317.597 47.5152 317.786 47.8068C317.979 48.0947 318.254 48.3201 318.61 48.483C318.966 48.642 319.387 48.7216 319.871 48.7216ZM319.871 43.3068C320.258 43.3068 320.601 43.2292 320.9 43.0739C321.199 42.9186 321.434 42.7027 321.604 42.4261C321.779 42.1496 321.868 41.8258 321.871 41.4545C321.868 41.0909 321.781 40.7727 321.61 40.5C321.443 40.2273 321.21 40.017 320.911 39.8693C320.612 39.7178 320.265 39.642 319.871 39.642C319.47 39.642 319.118 39.7178 318.815 39.8693C318.515 40.017 318.282 40.2273 318.116 40.5C317.949 40.7727 317.868 41.0909 317.871 41.4545C317.868 41.8258 317.951 42.1496 318.121 42.4261C318.292 42.7027 318.527 42.9186 318.826 43.0739C319.129 43.2292 319.478 43.3068 319.871 43.3068ZM332.123 47.8182V47.2045C332.123 46.7652 332.214 46.3636 332.396 46C332.581 45.6326 332.85 45.339 333.202 45.1193C333.558 44.8958 333.988 44.7841 334.492 44.7841C335.007 44.7841 335.439 44.8939 335.788 45.1136C336.136 45.3333 336.399 45.6269 336.577 45.9943C336.759 46.3617 336.85 46.7652 336.85 47.2045V47.8182C336.85 48.2576 336.759 48.661 336.577 49.0284C336.396 49.392 336.129 49.6856 335.776 49.9091C335.428 50.1288 335 50.2386 334.492 50.2386C333.981 50.2386 333.549 50.1288 333.197 49.9091C332.844 49.6856 332.577 49.392 332.396 49.0284C332.214 48.661 332.123 48.2576 332.123 47.8182ZM333.447 47.2045V47.8182C333.447 48.1439 333.524 48.4394 333.68 48.7045C333.835 48.9697 334.106 49.1023 334.492 49.1023C334.875 49.1023 335.142 48.9697 335.293 48.7045C335.445 48.4394 335.521 48.1439 335.521 47.8182V47.2045C335.521 46.8788 335.447 46.5833 335.299 46.3182C335.155 46.053 334.886 45.9205 334.492 45.9205C334.113 45.9205 333.844 46.053 333.685 46.3182C333.526 46.5833 333.447 46.8788 333.447 47.2045ZM326.271 41.1591V40.5455C326.271 40.1061 326.362 39.7027 326.543 39.3352C326.729 38.9678 326.998 38.6742 327.35 38.4545C327.706 38.2348 328.136 38.125 328.64 38.125C329.155 38.125 329.587 38.2348 329.935 38.4545C330.284 38.6742 330.547 38.9678 330.725 39.3352C330.903 39.7027 330.992 40.1061 330.992 40.5455V41.1591C330.992 41.5985 330.901 42.0019 330.719 42.3693C330.541 42.733 330.276 43.0265 329.924 43.25C329.576 43.4697 329.147 43.5795 328.64 43.5795C328.125 43.5795 327.691 43.4697 327.339 43.25C326.99 43.0265 326.725 42.733 326.543 42.3693C326.362 42.0019 326.271 41.5985 326.271 41.1591ZM327.6 40.5455V41.1591C327.6 41.4848 327.676 41.7803 327.827 42.0455C327.983 42.3106 328.254 42.4432 328.64 42.4432C329.019 42.4432 329.284 42.3106 329.435 42.0455C329.591 41.7803 329.668 41.4848 329.668 41.1591V40.5455C329.668 40.2197 329.594 39.9242 329.447 39.6591C329.299 39.3939 329.03 39.2614 328.64 39.2614C328.261 39.2614 327.992 39.3939 327.833 39.6591C327.678 39.9242 327.6 40.2197 327.6 40.5455ZM326.81 50L334.81 38.3636H336.168L328.168 50H326.81Z" fill="white"/>
<path d="M340 13H349C351.209 13 353 14.7909 353 17V73C353 75.2091 351.209 77 349 77H340V13Z" fill="#058663"/>
<path d="M342.141 47.7273V46.3068L347.169 38.3636H348.288V40.4545H347.578L343.982 46.1477V46.2386H350.874V47.7273H342.141ZM347.658 50V47.2955L347.669 46.6477V38.3636H349.334V50H347.658Z" fill="white"/>
<path d="M18.9813 103.545V113H17.6702L12.8644 106.066H12.7767V113H11.3502V103.545H12.6705L17.4809 110.489H17.5686V103.545H18.9813ZM23.9382 113.143C23.2734 113.143 22.6933 112.991 22.1978 112.686C21.7023 112.381 21.3176 111.955 21.0437 111.407C20.7698 110.859 20.6328 110.219 20.6328 109.487C20.6328 108.751 20.7698 108.108 21.0437 107.557C21.3176 107.006 21.7023 106.578 22.1978 106.274C22.6933 105.969 23.2734 105.817 23.9382 105.817C24.603 105.817 25.1831 105.969 25.6786 106.274C26.1741 106.578 26.5588 107.006 26.8327 107.557C27.1067 108.108 27.2436 108.751 27.2436 109.487C27.2436 110.219 27.1067 110.859 26.8327 111.407C26.5588 111.955 26.1741 112.381 25.6786 112.686C25.1831 112.991 24.603 113.143 23.9382 113.143ZM23.9428 111.984C24.3737 111.984 24.7307 111.871 25.0138 111.643C25.297 111.415 25.5063 111.112 25.6417 110.733C25.7802 110.355 25.8494 109.938 25.8494 109.482C25.8494 109.03 25.7802 108.614 25.6417 108.236C25.5063 107.854 25.297 107.548 25.0138 107.317C24.7307 107.086 24.3737 106.971 23.9428 106.971C23.5089 106.971 23.1488 107.086 22.8626 107.317C22.5794 107.548 22.3686 107.854 22.2301 108.236C22.0947 108.614 22.027 109.03 22.027 109.482C22.027 109.938 22.0947 110.355 22.2301 110.733C22.3686 111.112 22.5794 111.415 22.8626 111.643C23.1488 111.871 23.5089 111.984 23.9428 111.984ZM32.0944 105.909V107.017H28.2211V105.909H32.0944ZM29.2599 104.21H30.6402V110.918C30.6402 111.186 30.6802 111.387 30.7602 111.523C30.8402 111.655 30.9433 111.746 31.0695 111.795C31.1988 111.841 31.3388 111.864 31.4896 111.864C31.6004 111.864 31.6974 111.857 31.7805 111.841C31.8635 111.826 31.9282 111.814 31.9743 111.804L32.2236 112.945C32.1436 112.975 32.0297 113.006 31.882 113.037C31.7343 113.071 31.5496 113.089 31.328 113.092C30.9649 113.098 30.6263 113.034 30.3124 112.898C29.9985 112.763 29.7446 112.554 29.5507 112.271C29.3568 111.987 29.2599 111.632 29.2599 111.204V104.21ZM39.1253 113.157C38.6759 113.157 38.2697 113.074 37.9065 112.908C37.5434 112.738 37.2556 112.494 37.0432 112.174C36.834 111.854 36.7293 111.461 36.7293 110.996C36.7293 110.596 36.8063 110.267 36.9601 110.009C37.114 109.75 37.3218 109.545 37.5834 109.395C37.845 109.244 38.1373 109.13 38.4605 109.053C38.7836 108.976 39.113 108.917 39.4484 108.877C39.8731 108.828 40.2178 108.788 40.4825 108.757C40.7472 108.724 40.9395 108.67 41.0596 108.596C41.1796 108.522 41.2396 108.402 41.2396 108.236V108.203C41.2396 107.8 41.1257 107.488 40.898 107.266C40.6733 107.045 40.3379 106.934 39.8916 106.934C39.4269 106.934 39.0606 107.037 38.7929 107.243C38.5282 107.446 38.3451 107.673 38.2435 107.922L36.9463 107.626C37.1002 107.196 37.3248 106.848 37.6203 106.583C37.9188 106.315 38.262 106.121 38.6498 106.001C39.0376 105.878 39.4453 105.817 39.8731 105.817C40.1563 105.817 40.4564 105.851 40.7733 105.918C41.0934 105.983 41.392 106.103 41.6689 106.278C41.949 106.454 42.1783 106.705 42.3568 107.031C42.5353 107.354 42.6246 107.774 42.6246 108.291V113H41.2765V112.031H41.2211C41.1319 112.209 40.998 112.384 40.8195 112.557C40.641 112.729 40.4117 112.872 40.1317 112.986C39.8516 113.1 39.5161 113.157 39.1253 113.157ZM39.4253 112.049C39.807 112.049 40.1332 111.974 40.404 111.823C40.6779 111.672 40.8857 111.475 41.0273 111.232C41.1719 110.986 41.2442 110.723 41.2442 110.442V109.528C41.195 109.578 41.0996 109.624 40.958 109.667C40.8195 109.707 40.661 109.742 40.4825 109.773C40.304 109.801 40.1301 109.827 39.9608 109.852C39.7916 109.873 39.65 109.892 39.5361 109.907C39.2684 109.941 39.0237 109.998 38.8021 110.078C38.5836 110.158 38.4082 110.273 38.2758 110.424C38.1466 110.572 38.0819 110.769 38.0819 111.015C38.0819 111.357 38.2081 111.615 38.4605 111.79C38.7129 111.963 39.0345 112.049 39.4253 112.049ZM47.7731 105.909V107.017H43.8999V105.909H47.7731ZM44.9386 104.21H46.3189V110.918C46.3189 111.186 46.3589 111.387 46.4389 111.523C46.5189 111.655 46.622 111.746 46.7482 111.795C46.8775 111.841 47.0175 111.864 47.1683 111.864C47.2791 111.864 47.3761 111.857 47.4592 111.841C47.5423 111.826 47.6069 111.814 47.6531 111.804L47.9023 112.945C47.8223 112.975 47.7085 113.006 47.5607 113.037C47.413 113.071 47.2283 113.089 47.0067 113.092C46.6436 113.098 46.305 113.034 45.9911 112.898C45.6772 112.763 45.4233 112.554 45.2294 112.271C45.0355 111.987 44.9386 111.632 44.9386 111.204V104.21ZM54.804 113.157C54.3546 113.157 53.9484 113.074 53.5852 112.908C53.2221 112.738 52.9343 112.494 52.7219 112.174C52.5127 111.854 52.408 111.461 52.408 110.996C52.408 110.596 52.485 110.267 52.6388 110.009C52.7927 109.75 53.0005 109.545 53.2621 109.395C53.5237 109.244 53.8161 109.13 54.1392 109.053C54.4624 108.976 54.7917 108.917 55.1271 108.877C55.5518 108.828 55.8965 108.788 56.1612 108.757C56.4259 108.724 56.6183 108.67 56.7383 108.596C56.8583 108.522 56.9183 108.402 56.9183 108.236V108.203C56.9183 107.8 56.8045 107.488 56.5767 107.266C56.352 107.045 56.0166 106.934 55.5703 106.934C55.1056 106.934 54.7393 107.037 54.4716 107.243C54.2069 107.446 54.0238 107.673 53.9222 107.922L52.625 107.626C52.7789 107.196 53.0036 106.848 53.299 106.583C53.5975 106.315 53.9407 106.121 54.3285 106.001C54.7163 105.878 55.1241 105.817 55.5518 105.817C55.835 105.817 56.1351 105.851 56.4521 105.918C56.7721 105.983 57.0707 106.103 57.3477 106.278C57.6277 106.454 57.857 106.705 58.0355 107.031C58.214 107.354 58.3033 107.774 58.3033 108.291V113H56.9553V112.031H56.8999C56.8106 112.209 56.6767 112.384 56.4982 112.557C56.3197 112.729 56.0904 112.872 55.8104 112.986C55.5303 113.1 55.1948 113.157 54.804 113.157ZM55.104 112.049C55.4857 112.049 55.8119 111.974 56.0827 111.823C56.3567 111.672 56.5644 111.475 56.706 111.232C56.8506 110.986 56.9229 110.723 56.9229 110.442V109.528C56.8737 109.578 56.7783 109.624 56.6367 109.667C56.4982 109.707 56.3397 109.742 56.1612 109.773C55.9827 109.801 55.8088 109.827 55.6396 109.852C55.4703 109.873 55.3287 109.892 55.2148 109.907C54.9471 109.941 54.7024 109.998 54.4808 110.078C54.2623 110.158 54.0869 110.273 53.9545 110.424C53.8253 110.572 53.7607 110.769 53.7607 111.015C53.7607 111.357 53.8868 111.615 54.1392 111.79C54.3916 111.963 54.7132 112.049 55.104 112.049ZM61.5221 103.545V113H60.1418V103.545H61.5221ZM64.7594 103.545V113H63.3791V103.545H64.7594Z" fill="#8F362E"/>
<path d="M74.9588 100.499V116.047H74.0355V100.499H74.9588Z" fill="#D5D4D0"/>
<path d="M89.5581 106.029C89.5089 105.592 89.3057 105.254 88.9487 105.013C88.5917 104.77 88.1424 104.649 87.6007 104.649C87.2129 104.649 86.8775 104.71 86.5943 104.833C86.3112 104.953 86.0911 105.12 85.9342 105.332C85.7803 105.541 85.7033 105.78 85.7033 106.048C85.7033 106.272 85.7557 106.466 85.8603 106.629C85.968 106.792 86.1081 106.929 86.2804 107.04C86.4558 107.148 86.6436 107.239 86.8436 107.312C87.0437 107.383 87.236 107.442 87.4207 107.488L88.344 107.728C88.6456 107.802 88.9549 107.902 89.2719 108.028C89.5889 108.154 89.8828 108.32 90.1536 108.527C90.4245 108.733 90.643 108.988 90.8092 109.293C90.9784 109.598 91.0631 109.962 91.0631 110.387C91.0631 110.923 90.9246 111.398 90.6476 111.814C90.3737 112.229 89.9751 112.557 89.4519 112.797C88.9318 113.037 88.3024 113.157 87.5638 113.157C86.8559 113.157 86.2435 113.045 85.7264 112.82C85.2094 112.595 84.8047 112.277 84.5123 111.864C84.2199 111.449 84.0583 110.956 84.0276 110.387H85.4587C85.4864 110.729 85.5972 111.013 85.7911 111.241C85.988 111.466 86.2389 111.634 86.5435 111.744C86.8513 111.852 87.1883 111.906 87.5546 111.906C87.9577 111.906 88.3163 111.843 88.6302 111.717C88.9472 111.587 89.1965 111.409 89.3781 111.181C89.5596 110.95 89.6504 110.681 89.6504 110.373C89.6504 110.093 89.5704 109.864 89.4104 109.685C89.2534 109.507 89.0395 109.359 88.7687 109.242C88.5009 109.125 88.1978 109.022 87.8592 108.933L86.7421 108.628C85.985 108.422 85.3848 108.119 84.9416 107.719C84.5015 107.319 84.2815 106.789 84.2815 106.131C84.2815 105.586 84.4292 105.11 84.7247 104.704C85.0201 104.298 85.4202 103.982 85.9249 103.758C86.4297 103.53 86.999 103.416 87.633 103.416C88.2732 103.416 88.8379 103.529 89.3273 103.753C89.8197 103.978 90.2075 104.287 90.4906 104.681C90.7738 105.072 90.9215 105.521 90.9338 106.029H89.5581ZM94.0372 103.545V113H92.6569V103.545H94.0372ZM95.8942 113V105.909H97.2745V113H95.8942ZM96.5913 104.815C96.3513 104.815 96.145 104.735 95.9727 104.575C95.8034 104.412 95.7188 104.218 95.7188 103.993C95.7188 103.766 95.8034 103.572 95.9727 103.412C96.145 103.248 96.3513 103.167 96.5913 103.167C96.8314 103.167 97.036 103.248 97.2053 103.412C97.3776 103.572 97.4638 103.766 97.4638 103.993C97.4638 104.218 97.3776 104.412 97.2053 104.575C97.036 104.735 96.8314 104.815 96.5913 104.815ZM102.105 115.807C101.541 115.807 101.057 115.733 100.65 115.585C100.247 115.438 99.9179 115.242 99.6624 114.999C99.407 114.756 99.2162 114.49 99.09 114.2L100.276 113.711C100.36 113.846 100.47 113.989 100.609 114.14C100.75 114.294 100.941 114.425 101.181 114.533C101.424 114.64 101.737 114.694 102.118 114.694C102.642 114.694 103.074 114.567 103.416 114.311C103.757 114.059 103.928 113.656 103.928 113.102V111.707H103.84C103.757 111.858 103.637 112.026 103.48 112.211C103.326 112.395 103.114 112.555 102.843 112.691C102.572 112.826 102.22 112.894 101.786 112.894C101.226 112.894 100.721 112.763 100.272 112.501C99.8255 112.237 99.4716 111.847 99.21 111.333C98.9515 110.816 98.8222 110.181 98.8222 109.427C98.8222 108.673 98.9499 108.027 99.2054 107.488C99.4639 106.949 99.8178 106.537 100.267 106.251C100.717 105.961 101.226 105.817 101.795 105.817C102.235 105.817 102.591 105.891 102.862 106.038C103.132 106.183 103.343 106.352 103.494 106.546C103.648 106.74 103.766 106.911 103.85 107.059H103.951V105.909H105.304V113.157C105.304 113.766 105.162 114.266 104.879 114.657C104.596 115.048 104.213 115.337 103.73 115.525C103.249 115.713 102.708 115.807 102.105 115.807ZM102.091 111.749C102.488 111.749 102.823 111.657 103.097 111.472C103.374 111.284 103.583 111.016 103.725 110.669C103.87 110.318 103.942 109.898 103.942 109.408C103.942 108.931 103.871 108.511 103.73 108.148C103.588 107.785 103.38 107.502 103.106 107.299C102.832 107.092 102.494 106.989 102.091 106.989C101.675 106.989 101.329 107.097 101.052 107.312C100.775 107.525 100.566 107.814 100.424 108.18C100.286 108.547 100.216 108.956 100.216 109.408C100.216 109.873 100.287 110.281 100.429 110.632C100.57 110.983 100.78 111.257 101.057 111.453C101.337 111.65 101.681 111.749 102.091 111.749ZM108.535 108.79V113H107.155V103.545H108.517V107.063H108.605C108.771 106.682 109.025 106.378 109.366 106.154C109.708 105.929 110.154 105.817 110.705 105.817C111.191 105.817 111.616 105.917 111.979 106.117C112.345 106.317 112.629 106.615 112.829 107.012C113.032 107.406 113.133 107.899 113.133 108.49V113H111.753V108.656C111.753 108.136 111.619 107.733 111.351 107.446C111.084 107.157 110.711 107.012 110.234 107.012C109.908 107.012 109.616 107.082 109.357 107.22C109.102 107.359 108.9 107.562 108.752 107.83C108.608 108.094 108.535 108.414 108.535 108.79ZM118.285 105.909V107.017H114.412V105.909H118.285ZM115.451 104.21H116.831V110.918C116.831 111.186 116.871 111.387 116.951 111.523C117.031 111.655 117.134 111.746 117.26 111.795C117.39 111.841 117.53 111.864 117.681 111.864C117.791 111.864 117.888 111.857 117.971 111.841C118.054 111.826 118.119 111.814 118.165 111.804L118.415 112.945C118.335 112.975 118.221 113.006 118.073 113.037C117.925 113.071 117.741 113.089 117.519 113.092C117.156 113.098 116.817 113.034 116.503 112.898C116.189 112.763 115.936 112.554 115.742 112.271C115.548 111.987 115.451 111.632 115.451 111.204V104.21ZM121.345 103.545V113H119.965V103.545H121.345ZM124.074 115.659C123.868 115.659 123.68 115.642 123.511 115.608C123.342 115.578 123.216 115.544 123.133 115.507L123.465 114.376C123.717 114.443 123.942 114.473 124.139 114.463C124.336 114.454 124.51 114.38 124.661 114.242C124.815 114.103 124.95 113.877 125.067 113.563L125.238 113.092L122.643 105.909H124.121L125.916 111.412H125.99L127.786 105.909H129.268L126.346 113.946C126.21 114.316 126.038 114.628 125.829 114.884C125.619 115.142 125.37 115.336 125.081 115.465C124.791 115.594 124.456 115.659 124.074 115.659Z" fill="#E05547"/>
<path d="M138.959 100.499V116.047H138.035V100.499H138.959Z" fill="#D5D4D0"/>
<path d="M148.246 103.545H149.977L152.987 110.895H153.098L156.108 103.545H157.839V113H156.482V106.158H156.394L153.605 112.986H152.479L149.691 106.154H149.603V113H148.246V103.545ZM162.789 113.143C162.124 113.143 161.544 112.991 161.048 112.686C160.553 112.381 160.168 111.955 159.894 111.407C159.62 110.859 159.483 110.219 159.483 109.487C159.483 108.751 159.62 108.108 159.894 107.557C160.168 107.006 160.553 106.578 161.048 106.274C161.544 105.969 162.124 105.817 162.789 105.817C163.454 105.817 164.034 105.969 164.529 106.274C165.025 106.578 165.409 107.006 165.683 107.557C165.957 108.108 166.094 108.751 166.094 109.487C166.094 110.219 165.957 110.859 165.683 111.407C165.409 111.955 165.025 112.381 164.529 112.686C164.034 112.991 163.454 113.143 162.789 113.143ZM162.793 111.984C163.224 111.984 163.581 111.871 163.864 111.643C164.148 111.415 164.357 111.112 164.492 110.733C164.631 110.355 164.7 109.938 164.7 109.482C164.7 109.03 164.631 108.614 164.492 108.236C164.357 107.854 164.148 107.548 163.864 107.317C163.581 107.086 163.224 106.971 162.793 106.971C162.359 106.971 161.999 107.086 161.713 107.317C161.43 107.548 161.219 107.854 161.081 108.236C160.945 108.614 160.878 109.03 160.878 109.482C160.878 109.938 160.945 110.355 161.081 110.733C161.219 111.112 161.43 111.415 161.713 111.643C161.999 111.871 162.359 111.984 162.793 111.984ZM170.289 113.138C169.717 113.138 169.206 112.992 168.757 112.7C168.31 112.404 167.96 111.984 167.704 111.44C167.452 110.892 167.326 110.235 167.326 109.468C167.326 108.702 167.453 108.047 167.709 107.502C167.967 106.957 168.321 106.54 168.771 106.251C169.22 105.961 169.729 105.817 170.299 105.817C170.739 105.817 171.093 105.891 171.36 106.038C171.631 106.183 171.841 106.352 171.988 106.546C172.139 106.74 172.256 106.911 172.339 107.059H172.422V103.545H173.803V113H172.455V111.897H172.339C172.256 112.047 172.136 112.22 171.979 112.414C171.825 112.608 171.613 112.777 171.342 112.922C171.071 113.066 170.72 113.138 170.289 113.138ZM170.594 111.961C170.991 111.961 171.327 111.857 171.6 111.647C171.877 111.435 172.087 111.141 172.228 110.766C172.373 110.39 172.445 109.953 172.445 109.455C172.445 108.962 172.375 108.531 172.233 108.162C172.091 107.793 171.884 107.505 171.61 107.299C171.336 107.092 170.997 106.989 170.594 106.989C170.179 106.989 169.832 107.097 169.555 107.312C169.278 107.528 169.069 107.822 168.928 108.194C168.789 108.567 168.72 108.987 168.72 109.455C168.72 109.929 168.791 110.355 168.932 110.733C169.074 111.112 169.283 111.412 169.56 111.634C169.84 111.852 170.185 111.961 170.594 111.961ZM178.829 113.143C178.13 113.143 177.528 112.994 177.024 112.695C176.522 112.394 176.134 111.971 175.86 111.426C175.59 110.878 175.454 110.236 175.454 109.501C175.454 108.774 175.59 108.134 175.86 107.58C176.134 107.026 176.516 106.594 177.005 106.283C177.498 105.972 178.073 105.817 178.732 105.817C179.132 105.817 179.52 105.883 179.895 106.015C180.271 106.148 180.608 106.355 180.906 106.638C181.205 106.922 181.44 107.289 181.612 107.742C181.785 108.191 181.871 108.737 181.871 109.381V109.87H176.234V108.836H180.518C180.518 108.473 180.445 108.151 180.297 107.871C180.149 107.588 179.941 107.365 179.674 107.202C179.409 107.039 179.098 106.957 178.741 106.957C178.353 106.957 178.015 107.052 177.725 107.243C177.439 107.431 177.218 107.677 177.061 107.982C176.907 108.283 176.83 108.611 176.83 108.965V109.773C176.83 110.247 176.913 110.65 177.079 110.983C177.248 111.315 177.484 111.569 177.785 111.744C178.087 111.917 178.439 112.003 178.843 112.003C179.104 112.003 179.343 111.966 179.558 111.892C179.774 111.815 179.96 111.701 180.117 111.55C180.274 111.4 180.394 111.213 180.477 110.992L181.783 111.227C181.679 111.612 181.491 111.949 181.22 112.238C180.952 112.525 180.615 112.748 180.209 112.908C179.806 113.065 179.346 113.143 178.829 113.143ZM183.403 113V105.909H184.737V107.036H184.811C184.94 106.654 185.168 106.354 185.494 106.135C185.823 105.914 186.195 105.803 186.611 105.803C186.697 105.803 186.799 105.806 186.916 105.812C187.036 105.818 187.13 105.826 187.197 105.835V107.156C187.142 107.14 187.043 107.123 186.902 107.105C186.76 107.083 186.619 107.072 186.477 107.072C186.151 107.072 185.86 107.142 185.605 107.28C185.352 107.416 185.152 107.605 185.004 107.848C184.857 108.088 184.783 108.362 184.783 108.67V113H183.403ZM190.392 113.157C189.943 113.157 189.536 113.074 189.173 112.908C188.81 112.738 188.522 112.494 188.31 112.174C188.101 111.854 187.996 111.461 187.996 110.996C187.996 110.596 188.073 110.267 188.227 110.009C188.381 109.75 188.588 109.545 188.85 109.395C189.112 109.244 189.404 109.13 189.727 109.053C190.05 108.976 190.38 108.917 190.715 108.877C191.14 108.828 191.484 108.788 191.749 108.757C192.014 108.724 192.206 108.67 192.326 108.596C192.446 108.522 192.506 108.402 192.506 108.236V108.203C192.506 107.8 192.392 107.488 192.165 107.266C191.94 107.045 191.604 106.934 191.158 106.934C190.693 106.934 190.327 107.037 190.059 107.243C189.795 107.446 189.612 107.673 189.51 107.922L188.213 107.626C188.367 107.196 188.591 106.848 188.887 106.583C189.185 106.315 189.529 106.121 189.916 106.001C190.304 105.878 190.712 105.817 191.14 105.817C191.423 105.817 191.723 105.851 192.04 105.918C192.36 105.983 192.659 106.103 192.936 106.278C193.216 106.454 193.445 106.705 193.623 107.031C193.802 107.354 193.891 107.774 193.891 108.291V113H192.543V112.031H192.488C192.398 112.209 192.265 112.384 192.086 112.557C191.908 112.729 191.678 112.872 191.398 112.986C191.118 113.1 190.783 113.157 190.392 113.157ZM190.692 112.049C191.074 112.049 191.4 111.974 191.671 111.823C191.945 111.672 192.152 111.475 192.294 111.232C192.439 110.986 192.511 110.723 192.511 110.442V109.528C192.462 109.578 192.366 109.624 192.225 109.667C192.086 109.707 191.928 109.742 191.749 109.773C191.571 109.801 191.397 109.827 191.227 109.852C191.058 109.873 190.917 109.892 190.803 109.907C190.535 109.941 190.29 109.998 190.069 110.078C189.85 110.158 189.675 110.273 189.542 110.424C189.413 110.572 189.349 110.769 189.349 111.015C189.349 111.357 189.475 111.615 189.727 111.79C189.979 111.963 190.301 112.049 190.692 112.049ZM199.04 105.909V107.017H195.166V105.909H199.04ZM196.205 104.21H197.585V110.918C197.585 111.186 197.626 111.387 197.706 111.523C197.786 111.655 197.889 111.746 198.015 111.795C198.144 111.841 198.284 111.864 198.435 111.864C198.546 111.864 198.643 111.857 198.726 111.841C198.809 111.826 198.873 111.814 198.92 111.804L199.169 112.945C199.089 112.975 198.975 113.006 198.827 113.037C198.68 113.071 198.495 113.089 198.273 113.092C197.91 113.098 197.572 113.034 197.258 112.898C196.944 112.763 196.69 112.554 196.496 112.271C196.302 111.987 196.205 111.632 196.205 111.204V104.21ZM203.547 113.143C202.848 113.143 202.246 112.994 201.741 112.695C201.24 112.394 200.852 111.971 200.578 111.426C200.307 110.878 200.172 110.236 200.172 109.501C200.172 108.774 200.307 108.134 200.578 107.58C200.852 107.026 201.234 106.594 201.723 106.283C202.215 105.972 202.791 105.817 203.45 105.817C203.85 105.817 204.237 105.883 204.613 106.015C204.988 106.148 205.325 106.355 205.624 106.638C205.922 106.922 206.158 107.289 206.33 107.742C206.503 108.191 206.589 108.737 206.589 109.381V109.87H200.952V108.836H205.236C205.236 108.473 205.162 108.151 205.015 107.871C204.867 107.588 204.659 107.365 204.391 107.202C204.127 107.039 203.816 106.957 203.459 106.957C203.071 106.957 202.732 107.052 202.443 107.243C202.157 107.431 201.935 107.677 201.778 107.982C201.625 108.283 201.548 108.611 201.548 108.965V109.773C201.548 110.247 201.631 110.65 201.797 110.983C201.966 111.315 202.202 111.569 202.503 111.744C202.805 111.917 203.157 112.003 203.56 112.003C203.822 112.003 204.06 111.966 204.276 111.892C204.491 111.815 204.678 111.701 204.835 111.55C204.991 111.4 205.112 111.213 205.195 110.992L206.501 111.227C206.396 111.612 206.209 111.949 205.938 112.238C205.67 112.525 205.333 112.748 204.927 112.908C204.524 113.065 204.064 113.143 203.547 113.143ZM209.501 103.545V113H208.12V103.545H209.501ZM212.23 115.659C212.024 115.659 211.836 115.642 211.667 115.608C211.498 115.578 211.371 115.544 211.288 115.507L211.621 114.376C211.873 114.443 212.098 114.473 212.295 114.463C212.492 114.454 212.666 114.38 212.816 114.242C212.97 114.103 213.106 113.877 213.223 113.563L213.393 113.092L210.799 105.909H212.276L214.072 111.412H214.146L215.942 105.909H217.424L214.501 113.946C214.366 114.316 214.194 114.628 213.984 114.884C213.775 115.142 213.526 115.336 213.237 115.465C212.947 115.594 212.612 115.659 212.23 115.659Z" fill="#959490"/>
<path d="M226.959 100.499V116.047H226.035V100.499H226.959Z" fill="#D5D4D0"/>
<path d="M237.07 103.545L239.702 111.246H239.808L242.439 103.545H243.981L240.579 113H238.931L235.528 103.545H237.07ZM247.581 113.143C246.882 113.143 246.28 112.994 245.776 112.695C245.274 112.394 244.886 111.971 244.612 111.426C244.341 110.878 244.206 110.236 244.206 109.501C244.206 108.774 244.341 108.134 244.612 107.58C244.886 107.026 245.268 106.594 245.757 106.283C246.25 105.972 246.825 105.817 247.484 105.817C247.884 105.817 248.272 105.883 248.647 106.015C249.023 106.148 249.36 106.355 249.658 106.638C249.957 106.922 250.192 107.289 250.364 107.742C250.537 108.191 250.623 108.737 250.623 109.381V109.87H244.986V108.836H249.27C249.27 108.473 249.196 108.151 249.049 107.871C248.901 107.588 248.693 107.365 248.426 107.202C248.161 107.039 247.85 106.957 247.493 106.957C247.105 106.957 246.767 107.052 246.477 107.243C246.191 107.431 245.97 107.677 245.813 107.982C245.659 108.283 245.582 108.611 245.582 108.965V109.773C245.582 110.247 245.665 110.65 245.831 110.983C246 111.315 246.236 111.569 246.537 111.744C246.839 111.917 247.191 112.003 247.595 112.003C247.856 112.003 248.095 111.966 248.31 111.892C248.526 111.815 248.712 111.701 248.869 111.55C249.026 111.4 249.146 111.213 249.229 110.992L250.535 111.227C250.431 111.612 250.243 111.949 249.972 112.238C249.704 112.525 249.367 112.748 248.961 112.908C248.558 113.065 248.098 113.143 247.581 113.143ZM252.154 113V105.909H253.489V107.036H253.562C253.692 106.654 253.92 106.354 254.246 106.135C254.575 105.914 254.947 105.803 255.363 105.803C255.449 105.803 255.551 105.806 255.668 105.812C255.788 105.818 255.882 105.826 255.949 105.835V107.156C255.894 107.14 255.795 107.123 255.654 107.105C255.512 107.083 255.371 107.072 255.229 107.072C254.903 107.072 254.612 107.142 254.357 107.28C254.104 107.416 253.904 107.605 253.756 107.848C253.609 108.088 253.535 108.362 253.535 108.67V113H252.154ZM258.232 115.659C258.026 115.659 257.838 115.642 257.669 115.608C257.5 115.578 257.373 115.544 257.29 115.507L257.623 114.376C257.875 114.443 258.1 114.473 258.297 114.463C258.494 114.454 258.668 114.38 258.818 114.242C258.972 114.103 259.108 113.877 259.225 113.563L259.395 113.092L256.801 105.909H258.278L260.074 111.412H260.148L261.944 105.909H263.426L260.503 113.946C260.368 114.316 260.196 114.628 259.986 114.884C259.777 115.142 259.528 115.336 259.238 115.465C258.949 115.594 258.614 115.659 258.232 115.659Z" fill="#169973"/>
<path d="M272.959 100.499V116.047H272.035V100.499H272.959Z" fill="#D5D4D0"/>
<path d="M282.081 113V103.545H288.009V104.773H283.508V107.654H287.699V108.877H283.508V111.772H288.064V113H282.081ZM290.893 105.909L292.458 108.67L294.037 105.909H295.546L293.335 109.455L295.565 113H294.055L292.458 110.35L290.865 113H289.351L291.558 109.455L289.379 105.909H290.893ZM300.274 105.909V107.017H296.4V105.909H300.274ZM297.439 104.21H298.819V110.918C298.819 111.186 298.859 111.387 298.939 111.523C299.019 111.655 299.123 111.746 299.249 111.795C299.378 111.841 299.518 111.864 299.669 111.864C299.78 111.864 299.877 111.857 299.96 111.841C300.043 111.826 300.107 111.814 300.154 111.804L300.403 112.945C300.323 112.975 300.209 113.006 300.061 113.037C299.913 113.071 299.729 113.089 299.507 113.092C299.144 113.098 298.806 113.034 298.492 112.898C298.178 112.763 297.924 112.554 297.73 112.271C297.536 111.987 297.439 111.632 297.439 111.204V104.21ZM301.8 113V105.909H303.135V107.036H303.208C303.338 106.654 303.566 106.354 303.892 106.135C304.221 105.914 304.593 105.803 305.009 105.803C305.095 105.803 305.197 105.806 305.314 105.812C305.434 105.818 305.528 105.826 305.595 105.835V107.156C305.54 107.14 305.441 107.123 305.3 107.105C305.158 107.083 305.017 107.072 304.875 107.072C304.549 107.072 304.258 107.142 304.003 107.28C303.75 107.416 303.55 107.605 303.402 107.848C303.255 108.088 303.181 108.362 303.181 108.67V113H301.8ZM309.592 113.143C308.893 113.143 308.292 112.994 307.787 112.695C307.285 112.394 306.897 111.971 306.624 111.426C306.353 110.878 306.217 110.236 306.217 109.501C306.217 108.774 306.353 108.134 306.624 107.58C306.897 107.026 307.279 106.594 307.768 106.283C308.261 105.972 308.836 105.817 309.495 105.817C309.895 105.817 310.283 105.883 310.658 106.015C311.034 106.148 311.371 106.355 311.669 106.638C311.968 106.922 312.203 107.289 312.376 107.742C312.548 108.191 312.634 108.737 312.634 109.381V109.87H306.997V108.836H311.282C311.282 108.473 311.208 108.151 311.06 107.871C310.912 107.588 310.705 107.365 310.437 107.202C310.172 107.039 309.861 106.957 309.504 106.957C309.116 106.957 308.778 107.052 308.489 107.243C308.202 107.431 307.981 107.677 307.824 107.982C307.67 108.283 307.593 108.611 307.593 108.965V109.773C307.593 110.247 307.676 110.65 307.842 110.983C308.012 111.315 308.247 111.569 308.549 111.744C308.85 111.917 309.203 112.003 309.606 112.003C309.867 112.003 310.106 111.966 310.321 111.892C310.537 111.815 310.723 111.701 310.88 111.55C311.037 111.4 311.157 111.213 311.24 110.992L312.546 111.227C312.442 111.612 312.254 111.949 311.983 112.238C311.716 112.525 311.379 112.748 310.972 112.908C310.569 113.065 310.109 113.143 309.592 113.143ZM314.166 113V105.909H315.491V107.063H315.578C315.726 106.672 315.968 106.368 316.303 106.149C316.639 105.928 317.04 105.817 317.508 105.817C317.982 105.817 318.379 105.928 318.699 106.149C319.022 106.371 319.261 106.675 319.415 107.063H319.489C319.658 106.685 319.927 106.383 320.296 106.158C320.666 105.931 321.106 105.817 321.617 105.817C322.26 105.817 322.785 106.018 323.191 106.422C323.6 106.825 323.805 107.433 323.805 108.245V113H322.425V108.374C322.425 107.894 322.294 107.546 322.032 107.331C321.771 107.116 321.458 107.008 321.095 107.008C320.646 107.008 320.296 107.146 320.047 107.423C319.798 107.697 319.673 108.05 319.673 108.48V113H318.297V108.287C318.297 107.902 318.177 107.593 317.937 107.359C317.697 107.125 317.385 107.008 317 107.008C316.739 107.008 316.497 107.077 316.275 107.216C316.057 107.351 315.88 107.54 315.745 107.783C315.612 108.027 315.546 108.308 315.546 108.628V113H314.166ZM328.711 113.143C328.012 113.143 327.411 112.994 326.906 112.695C326.404 112.394 326.017 111.971 325.743 111.426C325.472 110.878 325.336 110.236 325.336 109.501C325.336 108.774 325.472 108.134 325.743 107.58C326.017 107.026 326.398 106.594 326.888 106.283C327.38 105.972 327.956 105.817 328.614 105.817C329.014 105.817 329.402 105.883 329.777 106.015C330.153 106.148 330.49 106.355 330.788 106.638C331.087 106.922 331.322 107.289 331.495 107.742C331.667 108.191 331.753 108.737 331.753 109.381V109.87H326.117V108.836H330.401C330.401 108.473 330.327 108.151 330.179 107.871C330.031 107.588 329.824 107.365 329.556 107.202C329.291 107.039 328.98 106.957 328.623 106.957C328.236 106.957 327.897 107.052 327.608 107.243C327.322 107.431 327.1 107.677 326.943 107.982C326.789 108.283 326.712 108.611 326.712 108.965V109.773C326.712 110.247 326.795 110.65 326.961 110.983C327.131 111.315 327.366 111.569 327.668 111.744C327.969 111.917 328.322 112.003 328.725 112.003C328.987 112.003 329.225 111.966 329.44 111.892C329.656 111.815 329.842 111.701 329.999 111.55C330.156 111.4 330.276 111.213 330.359 110.992L331.666 111.227C331.561 111.612 331.373 111.949 331.102 112.238C330.835 112.525 330.498 112.748 330.091 112.908C329.688 113.065 329.228 113.143 328.711 113.143ZM334.665 103.545V113H333.285V103.545H334.665ZM337.395 115.659C337.188 115.659 337.001 115.642 336.831 115.608C336.662 115.578 336.536 115.544 336.453 115.507L336.785 114.376C337.038 114.443 337.262 114.473 337.459 114.463C337.656 114.454 337.83 114.38 337.981 114.242C338.135 114.103 338.27 113.877 338.387 113.563L338.558 113.092L335.964 105.909H337.441L339.237 111.412H339.311L341.106 105.909H342.588L339.666 113.946C339.531 114.316 339.358 114.628 339.149 114.884C338.94 115.142 338.69 115.336 338.401 115.465C338.112 115.594 337.776 115.659 337.395 115.659Z" fill="#176D51"/>
</svg>
